<?xml version="1.0" encoding="UTF-8" standalone="no"?><svg xmlns="http://www.w3.org/2000/svg" xmlns:xlink="http://www.w3.org/1999/xlink" contentScriptType="application/ecmascript" contentStyleType="text/css" height="1050px" preserveAspectRatio="none" style="width:1190px;height:1050px;" version="1.1" viewBox="0 0 1190 1050" width="1190px" zoomAndPan="magnify"><defs><filter height="300%" id="fhy97vgl5zxts" width="300%" x="-1" y="-1"><feGaussianBlur result="blurOut" stdDeviation="2.0"/><feColorMatrix in="blurOut" result="blurOut2" type="matrix" values="0 0 0 0 0 0 0 0 0 0 0 0 0 0 0 0 0 0 .4 0"/><feOffset dx="4.0" dy="4.0" in="blurOut2" result="blurOut3"/><feBlend in="SourceGraphic" in2="blurOut3" mode="normal"/></filter></defs><g><!--class AbstractRenderer--><rect fill="#FEFECE" filter="url(#fhy97vgl5zxts)" height="48" id="AbstractRenderer" style="stroke: #A80036; stroke-width: 1.5;" width="143" x="661.5" y="224"/><ellipse cx="676.5" cy="240" fill="#ADD1B2" rx="11" ry="11" style="stroke: #A80036; stroke-width: 1.0;"/><path d="M678.8438,235.6719 L679.0156,235.75 C679.2344,235.4375 679.4375,235.3438 679.7344,235.3438 C680.0313,235.3438 680.3125,235.4844 680.4688,235.75 C680.5625,235.9063 680.5781,236.0313 680.5781,236.4688 L680.5781,237.8906 C680.5781,238.3125 680.5469,238.5 680.4375,238.6563 C680.2656,238.875 680,239.0156 679.7344,239.0156 C679.5156,239.0156 679.2813,238.9063 679.1406,238.7656 C679,238.6406 678.9688,238.5156 678.9063,238.1094 C678.8125,237.7031 678.6406,237.4844 678.1563,237.2031 C677.6875,236.9531 677.0781,236.7969 676.5,236.7969 C674.7656,236.7969 673.5156,238.1094 673.5156,239.8906 L673.5156,240.9844 C673.5156,242.6875 674.8125,243.7813 676.8594,243.7813 C677.625,243.7813 678.3125,243.6563 678.7344,243.3906 C678.9219,243.2969 678.9219,243.2969 679.375,242.8125 C679.5625,242.625 679.7656,242.5469 679.9844,242.5469 C680.4531,242.5469 680.8438,242.9375 680.8438,243.3906 C680.8438,243.7813 680.5156,244.2344 679.9375,244.6406 C679.1875,245.1875 678.0313,245.4844 676.8125,245.4844 C673.9219,245.4844 671.8125,243.5938 671.8125,241.0156 L671.8125,239.8906 C671.8125,237.1719 673.8125,235.0938 676.4375,235.0938 C677.3125,235.0938 677.9063,235.2344 678.8438,235.6719 Z "/><text fill="#000000" font-family="sans-serif" font-size="12" lengthAdjust="spacingAndGlyphs" textLength="111" x="690.5" y="244.1543">AbstractRenderer</text><line style="stroke: #A80036; stroke-width: 1.5;" x1="662.5" x2="803.5" y1="256" y2="256"/><line style="stroke: #A80036; stroke-width: 1.5;" x1="662.5" x2="803.5" y1="264" y2="264"/><!--class AbstractXYItemRenderer--><rect fill="#FEFECE" filter="url(#fhy97vgl5zxts)" height="48" id="AbstractXYItemRenderer" style="stroke: #A80036; stroke-width: 1.5;" width="184" x="138" y="332"/><ellipse cx="153" cy="348" fill="#ADD1B2" rx="11" ry="11" style="stroke: #A80036; stroke-width: 1.0;"/><path d="M155.3438,343.6719 L155.5156,343.75 C155.7344,343.4375 155.9375,343.3438 156.2344,343.3438 C156.5313,343.3438 156.8125,343.4844 156.9688,343.75 C157.0625,343.9063 157.0781,344.0313 157.0781,344.4688 L157.0781,345.8906 C157.0781,346.3125 157.0469,346.5 156.9375,346.6563 C156.7656,346.875 156.5,347.0156 156.2344,347.0156 C156.0156,347.0156 155.7813,346.9063 155.6406,346.7656 C155.5,346.6406 155.4688,346.5156 155.4063,346.1094 C155.3125,345.7031 155.1406,345.4844 154.6563,345.2031 C154.1875,344.9531 153.5781,344.7969 153,344.7969 C151.2656,344.7969 150.0156,346.1094 150.0156,347.8906 L150.0156,348.9844 C150.0156,350.6875 151.3125,351.7813 153.3594,351.7813 C154.125,351.7813 154.8125,351.6563 155.2344,351.3906 C155.4219,351.2969 155.4219,351.2969 155.875,350.8125 C156.0625,350.625 156.2656,350.5469 156.4844,350.5469 C156.9531,350.5469 157.3438,350.9375 157.3438,351.3906 C157.3438,351.7813 157.0156,352.2344 156.4375,352.6406 C155.6875,353.1875 154.5313,353.4844 153.3125,353.4844 C150.4219,353.4844 148.3125,351.5938 148.3125,349.0156 L148.3125,347.8906 C148.3125,345.1719 150.3125,343.0938 152.9375,343.0938 C153.8125,343.0938 154.4063,343.2344 155.3438,343.6719 Z "/><text fill="#000000" font-family="sans-serif" font-size="12" lengthAdjust="spacingAndGlyphs" textLength="152" x="167" y="352.1543">AbstractXYItemRenderer</text><line style="stroke: #A80036; stroke-width: 1.5;" x1="139" x2="321" y1="364" y2="364"/><line style="stroke: #A80036; stroke-width: 1.5;" x1="139" x2="321" y1="372" y2="372"/><!--class AbstractCategoryItemRenderer--><rect fill="#FEFECE" filter="url(#fhy97vgl5zxts)" height="48" id="AbstractCategoryItemRenderer" style="stroke: #A80036; stroke-width: 1.5;" width="226" x="411" y="332"/><ellipse cx="426" cy="348" fill="#ADD1B2" rx="11" ry="11" style="stroke: #A80036; stroke-width: 1.0;"/><path d="M428.3438,343.6719 L428.5156,343.75 C428.7344,343.4375 428.9375,343.3438 429.2344,343.3438 C429.5313,343.3438 429.8125,343.4844 429.9688,343.75 C430.0625,343.9063 430.0781,344.0313 430.0781,344.4688 L430.0781,345.8906 C430.0781,346.3125 430.0469,346.5 429.9375,346.6563 C429.7656,346.875 429.5,347.0156 429.2344,347.0156 C429.0156,347.0156 428.7813,346.9063 428.6406,346.7656 C428.5,346.6406 428.4688,346.5156 428.4063,346.1094 C428.3125,345.7031 428.1406,345.4844 427.6563,345.2031 C427.1875,344.9531 426.5781,344.7969 426,344.7969 C424.2656,344.7969 423.0156,346.1094 423.0156,347.8906 L423.0156,348.9844 C423.0156,350.6875 424.3125,351.7813 426.3594,351.7813 C427.125,351.7813 427.8125,351.6563 428.2344,351.3906 C428.4219,351.2969 428.4219,351.2969 428.875,350.8125 C429.0625,350.625 429.2656,350.5469 429.4844,350.5469 C429.9531,350.5469 430.3438,350.9375 430.3438,351.3906 C430.3438,351.7813 430.0156,352.2344 429.4375,352.6406 C428.6875,353.1875 427.5313,353.4844 426.3125,353.4844 C423.4219,353.4844 421.3125,351.5938 421.3125,349.0156 L421.3125,347.8906 C421.3125,345.1719 423.3125,343.0938 425.9375,343.0938 C426.8125,343.0938 427.4063,343.2344 428.3438,343.6719 Z "/><text fill="#000000" font-family="sans-serif" font-size="12" lengthAdjust="spacingAndGlyphs" textLength="194" x="440" y="352.1543">AbstractCategoryItemRenderer</text><line style="stroke: #A80036; stroke-width: 1.5;" x1="412" x2="636" y1="364" y2="364"/><line style="stroke: #A80036; stroke-width: 1.5;" x1="412" x2="636" y1="372" y2="372"/><!--class InheritedXYItemRendererClass--><rect fill="#FEFECE" filter="url(#fhy97vgl5zxts)" height="316.8984" id="InheritedXYItemRendererClass" style="stroke: #A80036; stroke-width: 1.5;" width="313" x="46.5" y="440"/><ellipse cx="104.75" cy="456" fill="#ADD1B2" rx="11" ry="11" style="stroke: #A80036; stroke-width: 1.0;"/><path d="M107.0938,451.6719 L107.2656,451.75 C107.4844,451.4375 107.6875,451.3438 107.9844,451.3438 C108.2813,451.3438 108.5625,451.4844 108.7188,451.75 C108.8125,451.9063 108.8281,452.0313 108.8281,452.4688 L108.8281,453.8906 C108.8281,454.3125 108.7969,454.5 108.6875,454.6563 C108.5156,454.875 108.25,455.0156 107.9844,455.0156 C107.7656,455.0156 107.5313,454.9063 107.3906,454.7656 C107.25,454.6406 107.2188,454.5156 107.1563,454.1094 C107.0625,453.7031 106.8906,453.4844 106.4063,453.2031 C105.9375,452.9531 105.3281,452.7969 104.75,452.7969 C103.0156,452.7969 101.7656,454.1094 101.7656,455.8906 L101.7656,456.9844 C101.7656,458.6875 103.0625,459.7813 105.1094,459.7813 C105.875,459.7813 106.5625,459.6563 106.9844,459.3906 C107.1719,459.2969 107.1719,459.2969 107.625,458.8125 C107.8125,458.625 108.0156,458.5469 108.2344,458.5469 C108.7031,458.5469 109.0938,458.9375 109.0938,459.3906 C109.0938,459.7813 108.7656,460.2344 108.1875,460.6406 C107.4375,461.1875 106.2813,461.4844 105.0625,461.4844 C102.1719,461.4844 100.0625,459.5938 100.0625,457.0156 L100.0625,455.8906 C100.0625,453.1719 102.0625,451.0938 104.6875,451.0938 C105.5625,451.0938 106.1563,451.2344 107.0938,451.6719 Z "/><text fill="#000000" font-family="sans-serif" font-size="12" lengthAdjust="spacingAndGlyphs" textLength="188" x="125.25" y="460.1543">InheritedXYItemRendererClass</text><line style="stroke: #A80036; stroke-width: 1.5;" x1="47.5" x2="358.5" y1="472" y2="472"/><text fill="#000000" font-family="sans-serif" font-size="11" lengthAdjust="spacingAndGlyphs" textLength="301" x="52.5" y="486.2104">The list of classes that actually inherit and fall within</text><text fill="#000000" font-family="sans-serif" font-size="11" lengthAdjust="spacingAndGlyphs" textLength="215" x="52.5" y="499.0151">our problem domain are listed below:</text><line style="stroke: #A80036; stroke-width: 1.0; stroke-dasharray: 1.0,2.0;" x1="47.5" x2="358.5" y1="505.6094" y2="505.6094"/><text fill="#000000" font-family="sans-serif" font-size="11" lengthAdjust="spacingAndGlyphs" textLength="117" x="52.5" y="519.8198">CandlestickRenderer</text><text fill="#000000" font-family="sans-serif" font-size="11" lengthAdjust="spacingAndGlyphs" textLength="99" x="52.5" y="532.6245">HighLowRenderer</text><text fill="#000000" font-family="sans-serif" font-size="11" lengthAdjust="spacingAndGlyphs" textLength="142" x="52.5" y="545.4292">SamplingXYLineRenderer</text><text fill="#000000" font-family="sans-serif" font-size="11" lengthAdjust="spacingAndGlyphs" textLength="143" x="52.5" y="558.2339">StandardXYItemRenderer</text><text fill="#000000" font-family="sans-serif" font-size="11" lengthAdjust="spacingAndGlyphs" textLength="88" x="52.5" y="571.0386">VectorRenderer</text><text fill="#000000" font-family="sans-serif" font-size="11" lengthAdjust="spacingAndGlyphs" textLength="103" x="52.5" y="583.8433">WindItemRenderer</text><text fill="#000000" font-family="sans-serif" font-size="11" lengthAdjust="spacingAndGlyphs" textLength="92" x="52.5" y="596.6479">XYAreaRenderer</text><text fill="#000000" font-family="sans-serif" font-size="11" lengthAdjust="spacingAndGlyphs" textLength="99" x="52.5" y="609.4526">XYAreaRenderer2</text><text fill="#000000" font-family="sans-serif" font-size="11" lengthAdjust="spacingAndGlyphs" textLength="86" x="52.5" y="622.2573">XYBarRenderer</text><text fill="#000000" font-family="sans-serif" font-size="11" lengthAdjust="spacingAndGlyphs" textLength="96" x="52.5" y="635.062">XYBlockRenderer</text><text fill="#000000" font-family="sans-serif" font-size="11" lengthAdjust="spacingAndGlyphs" textLength="159" x="52.5" y="647.8667">XYBoxAndWhiskersRenderer</text><text fill="#000000" font-family="sans-serif" font-size="11" lengthAdjust="spacingAndGlyphs" textLength="105" x="52.5" y="660.6714">XYBubbleRenderer</text><text fill="#000000" font-family="sans-serif" font-size="11" lengthAdjust="spacingAndGlyphs" textLength="146" x="52.5" y="673.4761">XYLineAndShapeRenderer</text><text fill="#000000" font-family="sans-serif" font-size="11" lengthAdjust="spacingAndGlyphs" textLength="124" x="52.5" y="686.2808">XYDifferenceRenderer</text><text fill="#000000" font-family="sans-serif" font-size="11" lengthAdjust="spacingAndGlyphs" textLength="85" x="52.5" y="699.0854">XYDotRenderer</text><text fill="#000000" font-family="sans-serif" font-size="11" lengthAdjust="spacingAndGlyphs" textLength="102" x="52.5" y="711.8901">XYShapeRenderer</text><text fill="#000000" font-family="sans-serif" font-size="11" lengthAdjust="spacingAndGlyphs" textLength="118" x="52.5" y="724.6948">XYStepAreaRenderer</text><text fill="#000000" font-family="sans-serif" font-size="11" lengthAdjust="spacingAndGlyphs" textLength="92" x="52.5" y="737.4995">XYStepRenderer</text><text fill="#000000" font-family="sans-serif" font-size="11" lengthAdjust="spacingAndGlyphs" textLength="101" x="52.5" y="750.3042">YIntervalRenderer</text><!--class InheritedCategoryItemRendererClass--><rect fill="#FEFECE" filter="url(#fhy97vgl5zxts)" height="176.0469" id="InheritedCategoryItemRendererClass" style="stroke: #A80036; stroke-width: 1.5;" width="313" x="425.5" y="510.5"/><ellipse cx="463.45" cy="526.5" fill="#ADD1B2" rx="11" ry="11" style="stroke: #A80036; stroke-width: 1.0;"/><path d="M465.7938,522.1719 L465.9656,522.25 C466.1844,521.9375 466.3875,521.8438 466.6844,521.8438 C466.9813,521.8438 467.2625,521.9844 467.4188,522.25 C467.5125,522.4063 467.5281,522.5313 467.5281,522.9688 L467.5281,524.3906 C467.5281,524.8125 467.4969,525 467.3875,525.1563 C467.2156,525.375 466.95,525.5156 466.6844,525.5156 C466.4656,525.5156 466.2313,525.4063 466.0906,525.2656 C465.95,525.1406 465.9188,525.0156 465.8563,524.6094 C465.7625,524.2031 465.5906,523.9844 465.1063,523.7031 C464.6375,523.4531 464.0281,523.2969 463.45,523.2969 C461.7156,523.2969 460.4656,524.6094 460.4656,526.3906 L460.4656,527.4844 C460.4656,529.1875 461.7625,530.2813 463.8094,530.2813 C464.575,530.2813 465.2625,530.1563 465.6844,529.8906 C465.8719,529.7969 465.8719,529.7969 466.325,529.3125 C466.5125,529.125 466.7156,529.0469 466.9344,529.0469 C467.4031,529.0469 467.7938,529.4375 467.7938,529.8906 C467.7938,530.2813 467.4656,530.7344 466.8875,531.1406 C466.1375,531.6875 464.9813,531.9844 463.7625,531.9844 C460.8719,531.9844 458.7625,530.0938 458.7625,527.5156 L458.7625,526.3906 C458.7625,523.6719 460.7625,521.5938 463.3875,521.5938 C464.2625,521.5938 464.8563,521.7344 465.7938,522.1719 Z "/><text fill="#000000" font-family="sans-serif" font-size="12" lengthAdjust="spacingAndGlyphs" textLength="230" x="482.55" y="530.6543">InheritedCategoryItemRendererClass</text><line style="stroke: #A80036; stroke-width: 1.5;" x1="426.5" x2="737.5" y1="542.5" y2="542.5"/><text fill="#000000" font-family="sans-serif" font-size="11" lengthAdjust="spacingAndGlyphs" textLength="301" x="431.5" y="556.7104">The list of classes that actually inherit and fall within</text><text fill="#000000" font-family="sans-serif" font-size="11" lengthAdjust="spacingAndGlyphs" textLength="215" x="431.5" y="569.5151">our problem domain are listed below:</text><line style="stroke: #A80036; stroke-width: 1.0; stroke-dasharray: 1.0,2.0;" x1="426.5" x2="737.5" y1="576.1094" y2="576.1094"/><text fill="#000000" font-family="sans-serif" font-size="11" lengthAdjust="spacingAndGlyphs" textLength="78" x="431.5" y="590.3198">AreaRenderer</text><text fill="#000000" font-family="sans-serif" font-size="11" lengthAdjust="spacingAndGlyphs" textLength="72" x="431.5" y="603.1245">BarRenderer</text><text fill="#000000" font-family="sans-serif" font-size="11" lengthAdjust="spacingAndGlyphs" textLength="138" x="431.5" y="615.9292">BoxAndWhiskerRenderer</text><text fill="#000000" font-family="sans-serif" font-size="11" lengthAdjust="spacingAndGlyphs" textLength="129" x="431.5" y="628.7339">CategoryStepRenderer</text><text fill="#000000" font-family="sans-serif" font-size="11" lengthAdjust="spacingAndGlyphs" textLength="81" x="431.5" y="641.5386">LevelRenderer</text><text fill="#000000" font-family="sans-serif" font-size="11" lengthAdjust="spacingAndGlyphs" textLength="132" x="431.5" y="654.3433">LineAndShapeRenderer</text><text fill="#000000" font-family="sans-serif" font-size="11" lengthAdjust="spacingAndGlyphs" textLength="144" x="431.5" y="667.1479">MinMaxCategoryRenderer</text><text fill="#000000" font-family="sans-serif" font-size="11" lengthAdjust="spacingAndGlyphs" textLength="93" x="431.5" y="679.9526">ScatterRenderer</text><!--class InheritedXYItemRendererClassExtenders--><rect fill="#FEFECE" filter="url(#fhy97vgl5zxts)" height="201.6563" id="InheritedXYItemRendererClassExtenders" style="stroke: #A80036; stroke-width: 1.5;" width="362" x="6" y="827"/><ellipse cx="57.25" cy="843" fill="#ADD1B2" rx="11" ry="11" style="stroke: #A80036; stroke-width: 1.0;"/><path d="M59.5938,838.6719 L59.7656,838.75 C59.9844,838.4375 60.1875,838.3438 60.4844,838.3438 C60.7813,838.3438 61.0625,838.4844 61.2188,838.75 C61.3125,838.9063 61.3281,839.0313 61.3281,839.4688 L61.3281,840.8906 C61.3281,841.3125 61.2969,841.5 61.1875,841.6563 C61.0156,841.875 60.75,842.0156 60.4844,842.0156 C60.2656,842.0156 60.0313,841.9063 59.8906,841.7656 C59.75,841.6406 59.7188,841.5156 59.6563,841.1094 C59.5625,840.7031 59.3906,840.4844 58.9063,840.2031 C58.4375,839.9531 57.8281,839.7969 57.25,839.7969 C55.5156,839.7969 54.2656,841.1094 54.2656,842.8906 L54.2656,843.9844 C54.2656,845.6875 55.5625,846.7813 57.6094,846.7813 C58.375,846.7813 59.0625,846.6563 59.4844,846.3906 C59.6719,846.2969 59.6719,846.2969 60.125,845.8125 C60.3125,845.625 60.5156,845.5469 60.7344,845.5469 C61.2031,845.5469 61.5938,845.9375 61.5938,846.3906 C61.5938,846.7813 61.2656,847.2344 60.6875,847.6406 C59.9375,848.1875 58.7813,848.4844 57.5625,848.4844 C54.6719,848.4844 52.5625,846.5938 52.5625,844.0156 L52.5625,842.8906 C52.5625,840.1719 54.5625,838.0938 57.1875,838.0938 C58.0625,838.0938 58.6563,838.2344 59.5938,838.6719 Z "/><text fill="#000000" font-family="sans-serif" font-size="12" lengthAdjust="spacingAndGlyphs" textLength="251" x="77.75" y="847.1543">InheritedXYItemRendererClassExtenders</text><line style="stroke: #A80036; stroke-width: 1.5;" x1="7" x2="367" y1="859" y2="859"/><text fill="#000000" font-family="sans-serif" font-size="11" lengthAdjust="spacingAndGlyphs" textLength="350" x="12" y="873.2104">Of course, these classes can also have subclasses that also</text><text fill="#000000" font-family="sans-serif" font-size="11" lengthAdjust="spacingAndGlyphs" textLength="155" x="12" y="886.0151">fall in our problem domain.</text><text fill="#000000" font-family="sans-serif" font-size="11" lengthAdjust="spacingAndGlyphs" textLength="83" x="12" y="898.8198">These include:</text><line style="stroke: #A80036; stroke-width: 1.0; stroke-dasharray: 1.0,2.0;" x1="7" x2="367" y1="905.4141" y2="905.4141"/><text fill="#000000" font-family="sans-serif" font-size="11" lengthAdjust="spacingAndGlyphs" textLength="288" x="12" y="919.6245">ClusteredXYBarRenderer (extends XYBarRenderer)</text><text fill="#000000" font-family="sans-serif" font-size="11" lengthAdjust="spacingAndGlyphs" textLength="278" x="12" y="932.4292">StackedXYBarRenderer (extends XYBarRenderer)</text><text fill="#000000" font-family="sans-serif" font-size="11" lengthAdjust="spacingAndGlyphs" textLength="327" x="12" y="945.2339">CyclicXYItemRenderer (extends StandardXYItemRenderer)</text><text fill="#000000" font-family="sans-serif" font-size="11" lengthAdjust="spacingAndGlyphs" textLength="338" x="12" y="958.0386">DefaultXYItemRenderer (extends XYLineAndShapeRenderer)</text><text fill="#000000" font-family="sans-serif" font-size="11" lengthAdjust="spacingAndGlyphs" textLength="311" x="12" y="970.8433">DeviationRenderer (extends XYLineAndShapeRenderer)</text><text fill="#000000" font-family="sans-serif" font-size="11" lengthAdjust="spacingAndGlyphs" textLength="302" x="12" y="983.6479">XYErrorRenderer (extends XYLineAndShapeRenderer)</text><text fill="#000000" font-family="sans-serif" font-size="11" lengthAdjust="spacingAndGlyphs" textLength="308" x="12" y="996.4526">XYSplineRenderer (extends XYLineAndShapeRenderer)</text><text fill="#000000" font-family="sans-serif" font-size="11" lengthAdjust="spacingAndGlyphs" textLength="290" x="12" y="1009.2573">StackedXYAreaRenderer (extends XYAreaRenderer)</text><text fill="#000000" font-family="sans-serif" font-size="11" lengthAdjust="spacingAndGlyphs" textLength="304" x="12" y="1022.062">StackedXYAreaRenderer2 (extends XYAreaRenderer2)</text><!--class InheritedCategoryItemRendererClassExtenders--><rect fill="#FEFECE" filter="url(#fhy97vgl5zxts)" height="222.4609" id="InheritedCategoryItemRendererClassExtenders" style="stroke: #A80036; stroke-width: 1.5;" width="389" x="403.5" y="817"/><ellipse cx="447.3" cy="833" fill="#ADD1B2" rx="11" ry="11" style="stroke: #A80036; stroke-width: 1.0;"/><path d="M449.6438,828.6719 L449.8156,828.75 C450.0344,828.4375 450.2375,828.3438 450.5344,828.3438 C450.8313,828.3438 451.1125,828.4844 451.2688,828.75 C451.3625,828.9063 451.3781,829.0313 451.3781,829.4688 L451.3781,830.8906 C451.3781,831.3125 451.3469,831.5 451.2375,831.6563 C451.0656,831.875 450.8,832.0156 450.5344,832.0156 C450.3156,832.0156 450.0813,831.9063 449.9406,831.7656 C449.8,831.6406 449.7688,831.5156 449.7063,831.1094 C449.6125,830.7031 449.4406,830.4844 448.9563,830.2031 C448.4875,829.9531 447.8781,829.7969 447.3,829.7969 C445.5656,829.7969 444.3156,831.1094 444.3156,832.8906 L444.3156,833.9844 C444.3156,835.6875 445.6125,836.7813 447.6594,836.7813 C448.425,836.7813 449.1125,836.6563 449.5344,836.3906 C449.7219,836.2969 449.7219,836.2969 450.175,835.8125 C450.3625,835.625 450.5656,835.5469 450.7844,835.5469 C451.2531,835.5469 451.6438,835.9375 451.6438,836.3906 C451.6438,836.7813 451.3156,837.2344 450.7375,837.6406 C449.9875,838.1875 448.8313,838.4844 447.6125,838.4844 C444.7219,838.4844 442.6125,836.5938 442.6125,834.0156 L442.6125,832.8906 C442.6125,830.1719 444.6125,828.0938 447.2375,828.0938 C448.1125,828.0938 448.7063,828.2344 449.6438,828.6719 Z "/><text fill="#000000" font-family="sans-serif" font-size="12" lengthAdjust="spacingAndGlyphs" textLength="293" x="467.7" y="837.1543">InheritedCategoryItemRendererClassExtenders</text><line style="stroke: #A80036; stroke-width: 1.5;" x1="404.5" x2="791.5" y1="849" y2="849"/><text fill="#000000" font-family="sans-serif" font-size="11" lengthAdjust="spacingAndGlyphs" textLength="350" x="409.5" y="863.2104">Of course, these classes can also have subclasses that also</text><text fill="#000000" font-family="sans-serif" font-size="11" lengthAdjust="spacingAndGlyphs" textLength="155" x="409.5" y="876.0151">fall in our problem domain.</text><text fill="#000000" font-family="sans-serif" font-size="11" lengthAdjust="spacingAndGlyphs" textLength="83" x="409.5" y="888.8198">These include:</text><line style="stroke: #A80036; stroke-width: 1.0; stroke-dasharray: 1.0,2.0;" x1="404.5" x2="791.5" y1="895.4141" y2="895.4141"/><text fill="#000000" font-family="sans-serif" font-size="11" lengthAdjust="spacingAndGlyphs" textLength="361" x="409.5" y="909.6245">DefaultCategoryItemRenderer (extends LineAndShapeRenderer)</text><text fill="#000000" font-family="sans-serif" font-size="11" lengthAdjust="spacingAndGlyphs" textLength="377" x="409.5" y="922.4292">StatisticalCategoryItemRenderer (extends LineAndShapeRenderer)</text><text fill="#000000" font-family="sans-serif" font-size="11" lengthAdjust="spacingAndGlyphs" textLength="247" x="409.5" y="935.2339">IntervalBarRenderer (extends BarRenderer)</text><text fill="#000000" font-family="sans-serif" font-size="11" lengthAdjust="spacingAndGlyphs" textLength="250" x="409.5" y="948.0386">StackedBarRenderer (extends BarRenderer)</text><text fill="#000000" font-family="sans-serif" font-size="11" lengthAdjust="spacingAndGlyphs" textLength="250" x="409.5" y="960.8433">LayeredBarRenderer (extends BarRenderer)</text><text fill="#000000" font-family="sans-serif" font-size="11" lengthAdjust="spacingAndGlyphs" textLength="261" x="409.5" y="973.6479">StatisticalBarRenderer (extends BarRenderer)</text><text fill="#000000" font-family="sans-serif" font-size="11" lengthAdjust="spacingAndGlyphs" textLength="254" x="409.5" y="986.4526">WaterfallBarRenderer (extends BarRenderer)</text><text fill="#000000" font-family="sans-serif" font-size="11" lengthAdjust="spacingAndGlyphs" textLength="262" x="409.5" y="999.2573">StackedAreaRenderer (extends AreaRenderer)</text><line style="stroke: #A80036; stroke-width: 1.0; stroke-dasharray: 1.0,2.0;" x1="404.5" x2="791.5" y1="1005.8516" y2="1005.8516"/><text fill="#000000" font-family="sans-serif" font-size="11" lengthAdjust="spacingAndGlyphs" textLength="344" x="409.5" y="1020.062">GroupedStackedBarRenderer (extends StackedBarRenderer)</text><text fill="#000000" font-family="sans-serif" font-size="11" lengthAdjust="spacingAndGlyphs" textLength="265" x="409.5" y="1032.8667">GhanttRenderer (extends IntervalBarRenderer)</text><!--class DefaultPolarItemRenderer--><rect fill="#FEFECE" filter="url(#fhy97vgl5zxts)" height="48" id="DefaultPolarItemRenderer" style="stroke: #A80036; stroke-width: 1.5;" width="194" x="859" y="332"/><ellipse cx="874" cy="348" fill="#ADD1B2" rx="11" ry="11" style="stroke: #A80036; stroke-width: 1.0;"/><path d="M876.3438,343.6719 L876.5156,343.75 C876.7344,343.4375 876.9375,343.3438 877.2344,343.3438 C877.5313,343.3438 877.8125,343.4844 877.9688,343.75 C878.0625,343.9063 878.0781,344.0313 878.0781,344.4688 L878.0781,345.8906 C878.0781,346.3125 878.0469,346.5 877.9375,346.6563 C877.7656,346.875 877.5,347.0156 877.2344,347.0156 C877.0156,347.0156 876.7813,346.9063 876.6406,346.7656 C876.5,346.6406 876.4688,346.5156 876.4063,346.1094 C876.3125,345.7031 876.1406,345.4844 875.6563,345.2031 C875.1875,344.9531 874.5781,344.7969 874,344.7969 C872.2656,344.7969 871.0156,346.1094 871.0156,347.8906 L871.0156,348.9844 C871.0156,350.6875 872.3125,351.7813 874.3594,351.7813 C875.125,351.7813 875.8125,351.6563 876.2344,351.3906 C876.4219,351.2969 876.4219,351.2969 876.875,350.8125 C877.0625,350.625 877.2656,350.5469 877.4844,350.5469 C877.9531,350.5469 878.3438,350.9375 878.3438,351.3906 C878.3438,351.7813 878.0156,352.2344 877.4375,352.6406 C876.6875,353.1875 875.5313,353.4844 874.3125,353.4844 C871.4219,353.4844 869.3125,351.5938 869.3125,349.0156 L869.3125,347.8906 C869.3125,345.1719 871.3125,343.0938 873.9375,343.0938 C874.8125,343.0938 875.4063,343.2344 876.3438,343.6719 Z "/><text fill="#000000" font-family="sans-serif" font-size="12" lengthAdjust="spacingAndGlyphs" textLength="162" x="888" y="352.1543">DefaultPolarItemRenderer</text><line style="stroke: #A80036; stroke-width: 1.5;" x1="860" x2="1052" y1="364" y2="364"/><line style="stroke: #A80036; stroke-width: 1.5;" x1="860" x2="1052" y1="372" y2="372"/><!--class WaferMapRenderer--><rect fill="#FEFECE" filter="url(#fhy97vgl5zxts)" height="48" id="WaferMapRenderer" style="stroke: #A80036; stroke-width: 1.5;" width="152" x="672" y="332"/><ellipse cx="687" cy="348" fill="#ADD1B2" rx="11" ry="11" style="stroke: #A80036; stroke-width: 1.0;"/><path d="M689.3438,343.6719 L689.5156,343.75 C689.7344,343.4375 689.9375,343.3438 690.2344,343.3438 C690.5313,343.3438 690.8125,343.4844 690.9688,343.75 C691.0625,343.9063 691.0781,344.0313 691.0781,344.4688 L691.0781,345.8906 C691.0781,346.3125 691.0469,346.5 690.9375,346.6563 C690.7656,346.875 690.5,347.0156 690.2344,347.0156 C690.0156,347.0156 689.7813,346.9063 689.6406,346.7656 C689.5,346.6406 689.4688,346.5156 689.4063,346.1094 C689.3125,345.7031 689.1406,345.4844 688.6563,345.2031 C688.1875,344.9531 687.5781,344.7969 687,344.7969 C685.2656,344.7969 684.0156,346.1094 684.0156,347.8906 L684.0156,348.9844 C684.0156,350.6875 685.3125,351.7813 687.3594,351.7813 C688.125,351.7813 688.8125,351.6563 689.2344,351.3906 C689.4219,351.2969 689.4219,351.2969 689.875,350.8125 C690.0625,350.625 690.2656,350.5469 690.4844,350.5469 C690.9531,350.5469 691.3438,350.9375 691.3438,351.3906 C691.3438,351.7813 691.0156,352.2344 690.4375,352.6406 C689.6875,353.1875 688.5313,353.4844 687.3125,353.4844 C684.4219,353.4844 682.3125,351.5938 682.3125,349.0156 L682.3125,347.8906 C682.3125,345.1719 684.3125,343.0938 686.9375,343.0938 C687.8125,343.0938 688.4063,343.2344 689.3438,343.6719 Z "/><text fill="#000000" font-family="sans-serif" font-size="12" lengthAdjust="spacingAndGlyphs" textLength="120" x="701" y="352.1543">WaferMapRenderer</text><line style="stroke: #A80036; stroke-width: 1.5;" x1="673" x2="823" y1="364" y2="364"/><line style="stroke: #A80036; stroke-width: 1.5;" x1="673" x2="823" y1="372" y2="372"/><!--class IRenderStateVisibility--><rect fill="#FEFECE" filter="url(#fhy97vgl5zxts)" height="48" id="IRenderStateVisibility" style="stroke: #A80036; stroke-width: 1.5;" width="164" x="275" y="8"/><ellipse cx="290" cy="24" fill="#B4A7E5" rx="11" ry="11" style="stroke: #A80036; stroke-width: 1.0;"/><path d="M290.9531,20.7813 L290.9531,27.2969 L292.6719,27.2969 C293.125,27.2969 293.2656,27.3281 293.4375,27.4531 C293.6719,27.625 293.7813,27.875 293.7813,28.1563 C293.7813,28.7188 293.4219,29 292.6719,29 L287.5313,29 C287.125,29 286.9219,28.9531 286.7656,28.8281 C286.5469,28.6719 286.4063,28.4063 286.4063,28.1563 C286.4063,27.8594 286.5625,27.5781 286.8125,27.4219 C286.9688,27.3125 287.0938,27.2969 287.5313,27.2969 L289.25,27.2969 L289.25,20.7813 L287.5313,20.7813 C287.1094,20.7813 286.9219,20.75 286.7656,20.6406 C286.5469,20.4688 286.4063,20.2188 286.4063,19.9375 C286.4063,19.6563 286.5625,19.3594 286.8125,19.2031 C286.9688,19.1094 287.0938,19.0938 287.5313,19.0938 L292.6719,19.0938 C293.125,19.0938 293.2656,19.125 293.4375,19.2344 C293.6719,19.4063 293.7813,19.6719 293.7813,19.9375 C293.7813,20.2344 293.6406,20.5156 293.375,20.6719 C293.25,20.75 293.0625,20.7813 292.6719,20.7813 Z "/><text fill="#000000" font-family="sans-serif" font-size="12" font-style="italic" lengthAdjust="spacingAndGlyphs" textLength="132" x="304" y="28.1543">IRenderStateVisibility</text><line style="stroke: #A80036; stroke-width: 1.5;" x1="276" x2="438" y1="40" y2="40"/><line style="stroke: #A80036; stroke-width: 1.5;" x1="276" x2="438" y1="48" y2="48"/><!--class RenderStateVisibility--><rect fill="#FEFECE" filter="url(#fhy97vgl5zxts)" height="48" id="RenderStateVisibility" style="stroke: #A80036; stroke-width: 1.5;" width="160" x="278" y="116"/><ellipse cx="293" cy="132" fill="#ADD1B2" rx="11" ry="11" style="stroke: #A80036; stroke-width: 1.0;"/><path d="M295.3438,127.6719 L295.5156,127.75 C295.7344,127.4375 295.9375,127.3438 296.2344,127.3438 C296.5313,127.3438 296.8125,127.4844 296.9688,127.75 C297.0625,127.9063 297.0781,128.0313 297.0781,128.4688 L297.0781,129.8906 C297.0781,130.3125 297.0469,130.5 296.9375,130.6563 C296.7656,130.875 296.5,131.0156 296.2344,131.0156 C296.0156,131.0156 295.7813,130.9063 295.6406,130.7656 C295.5,130.6406 295.4688,130.5156 295.4063,130.1094 C295.3125,129.7031 295.1406,129.4844 294.6563,129.2031 C294.1875,128.9531 293.5781,128.7969 293,128.7969 C291.2656,128.7969 290.0156,130.1094 290.0156,131.8906 L290.0156,132.9844 C290.0156,134.6875 291.3125,135.7813 293.3594,135.7813 C294.125,135.7813 294.8125,135.6563 295.2344,135.3906 C295.4219,135.2969 295.4219,135.2969 295.875,134.8125 C296.0625,134.625 296.2656,134.5469 296.4844,134.5469 C296.9531,134.5469 297.3438,134.9375 297.3438,135.3906 C297.3438,135.7813 297.0156,136.2344 296.4375,136.6406 C295.6875,137.1875 294.5313,137.4844 293.3125,137.4844 C290.4219,137.4844 288.3125,135.5938 288.3125,133.0156 L288.3125,131.8906 C288.3125,129.1719 290.3125,127.0938 292.9375,127.0938 C293.8125,127.0938 294.4063,127.2344 295.3438,127.6719 Z "/><text fill="#000000" font-family="sans-serif" font-size="12" lengthAdjust="spacingAndGlyphs" textLength="128" x="307" y="136.1543">RenderStateVisibility</text><line style="stroke: #A80036; stroke-width: 1.5;" x1="279" x2="437" y1="148" y2="148"/><line style="stroke: #A80036; stroke-width: 1.5;" x1="279" x2="437" y1="156" y2="156"/><!--class IRenderStatePaint--><rect fill="#FEFECE" filter="url(#fhy97vgl5zxts)" height="48" id="IRenderStatePaint" style="stroke: #A80036; stroke-width: 1.5;" width="146" x="474" y="8"/><ellipse cx="489" cy="24" fill="#B4A7E5" rx="11" ry="11" style="stroke: #A80036; stroke-width: 1.0;"/><path d="M489.9531,20.7813 L489.9531,27.2969 L491.6719,27.2969 C492.125,27.2969 492.2656,27.3281 492.4375,27.4531 C492.6719,27.625 492.7813,27.875 492.7813,28.1563 C492.7813,28.7188 492.4219,29 491.6719,29 L486.5313,29 C486.125,29 485.9219,28.9531 485.7656,28.8281 C485.5469,28.6719 485.4063,28.4063 485.4063,28.1563 C485.4063,27.8594 485.5625,27.5781 485.8125,27.4219 C485.9688,27.3125 486.0938,27.2969 486.5313,27.2969 L488.25,27.2969 L488.25,20.7813 L486.5313,20.7813 C486.1094,20.7813 485.9219,20.75 485.7656,20.6406 C485.5469,20.4688 485.4063,20.2188 485.4063,19.9375 C485.4063,19.6563 485.5625,19.3594 485.8125,19.2031 C485.9688,19.1094 486.0938,19.0938 486.5313,19.0938 L491.6719,19.0938 C492.125,19.0938 492.2656,19.125 492.4375,19.2344 C492.6719,19.4063 492.7813,19.6719 492.7813,19.9375 C492.7813,20.2344 492.6406,20.5156 492.375,20.6719 C492.25,20.75 492.0625,20.7813 491.6719,20.7813 Z "/><text fill="#000000" font-family="sans-serif" font-size="12" font-style="italic" lengthAdjust="spacingAndGlyphs" textLength="114" x="503" y="28.1543">IRenderStatePaint</text><line style="stroke: #A80036; stroke-width: 1.5;" x1="475" x2="619" y1="40" y2="40"/><line style="stroke: #A80036; stroke-width: 1.5;" x1="475" x2="619" y1="48" y2="48"/><!--class RenderStatePaint--><rect fill="#FEFECE" filter="url(#fhy97vgl5zxts)" height="48" id="RenderStatePaint" style="stroke: #A80036; stroke-width: 1.5;" width="143" x="476.5" y="116"/><ellipse cx="491.5" cy="132" fill="#ADD1B2" rx="11" ry="11" style="stroke: #A80036; stroke-width: 1.0;"/><path d="M493.8438,127.6719 L494.0156,127.75 C494.2344,127.4375 494.4375,127.3438 494.7344,127.3438 C495.0313,127.3438 495.3125,127.4844 495.4688,127.75 C495.5625,127.9063 495.5781,128.0313 495.5781,128.4688 L495.5781,129.8906 C495.5781,130.3125 495.5469,130.5 495.4375,130.6563 C495.2656,130.875 495,131.0156 494.7344,131.0156 C494.5156,131.0156 494.2813,130.9063 494.1406,130.7656 C494,130.6406 493.9688,130.5156 493.9063,130.1094 C493.8125,129.7031 493.6406,129.4844 493.1563,129.2031 C492.6875,128.9531 492.0781,128.7969 491.5,128.7969 C489.7656,128.7969 488.5156,130.1094 488.5156,131.8906 L488.5156,132.9844 C488.5156,134.6875 489.8125,135.7813 491.8594,135.7813 C492.625,135.7813 493.3125,135.6563 493.7344,135.3906 C493.9219,135.2969 493.9219,135.2969 494.375,134.8125 C494.5625,134.625 494.7656,134.5469 494.9844,134.5469 C495.4531,134.5469 495.8438,134.9375 495.8438,135.3906 C495.8438,135.7813 495.5156,136.2344 494.9375,136.6406 C494.1875,137.1875 493.0313,137.4844 491.8125,137.4844 C488.9219,137.4844 486.8125,135.5938 486.8125,133.0156 L486.8125,131.8906 C486.8125,129.1719 488.8125,127.0938 491.4375,127.0938 C492.3125,127.0938 492.9063,127.2344 493.8438,127.6719 Z "/><text fill="#000000" font-family="sans-serif" font-size="12" lengthAdjust="spacingAndGlyphs" textLength="111" x="505.5" y="136.1543">RenderStatePaint</text><line style="stroke: #A80036; stroke-width: 1.5;" x1="477.5" x2="618.5" y1="148" y2="148"/><line style="stroke: #A80036; stroke-width: 1.5;" x1="477.5" x2="618.5" y1="156" y2="156"/><!--class IRenderStateStroke--><rect fill="#FEFECE" filter="url(#fhy97vgl5zxts)" height="48" id="IRenderStateStroke" style="stroke: #A80036; stroke-width: 1.5;" width="156" x="655" y="8"/><ellipse cx="670" cy="24" fill="#B4A7E5" rx="11" ry="11" style="stroke: #A80036; stroke-width: 1.0;"/><path d="M670.9531,20.7813 L670.9531,27.2969 L672.6719,27.2969 C673.125,27.2969 673.2656,27.3281 673.4375,27.4531 C673.6719,27.625 673.7813,27.875 673.7813,28.1563 C673.7813,28.7188 673.4219,29 672.6719,29 L667.5313,29 C667.125,29 666.9219,28.9531 666.7656,28.8281 C666.5469,28.6719 666.4063,28.4063 666.4063,28.1563 C666.4063,27.8594 666.5625,27.5781 666.8125,27.4219 C666.9688,27.3125 667.0938,27.2969 667.5313,27.2969 L669.25,27.2969 L669.25,20.7813 L667.5313,20.7813 C667.1094,20.7813 666.9219,20.75 666.7656,20.6406 C666.5469,20.4688 666.4063,20.2188 666.4063,19.9375 C666.4063,19.6563 666.5625,19.3594 666.8125,19.2031 C666.9688,19.1094 667.0938,19.0938 667.5313,19.0938 L672.6719,19.0938 C673.125,19.0938 673.2656,19.125 673.4375,19.2344 C673.6719,19.4063 673.7813,19.6719 673.7813,19.9375 C673.7813,20.2344 673.6406,20.5156 673.375,20.6719 C673.25,20.75 673.0625,20.7813 672.6719,20.7813 Z "/><text fill="#000000" font-family="sans-serif" font-size="12" font-style="italic" lengthAdjust="spacingAndGlyphs" textLength="124" x="684" y="28.1543">IRenderStateStroke</text><line style="stroke: #A80036; stroke-width: 1.5;" x1="656" x2="810" y1="40" y2="40"/><line style="stroke: #A80036; stroke-width: 1.5;" x1="656" x2="810" y1="48" y2="48"/><!--class RenderStateStroke--><rect fill="#FEFECE" filter="url(#fhy97vgl5zxts)" height="48" id="RenderStateStroke" style="stroke: #A80036; stroke-width: 1.5;" width="152" x="657" y="116"/><ellipse cx="672" cy="132" fill="#ADD1B2" rx="11" ry="11" style="stroke: #A80036; stroke-width: 1.0;"/><path d="M674.3438,127.6719 L674.5156,127.75 C674.7344,127.4375 674.9375,127.3438 675.2344,127.3438 C675.5313,127.3438 675.8125,127.4844 675.9688,127.75 C676.0625,127.9063 676.0781,128.0313 676.0781,128.4688 L676.0781,129.8906 C676.0781,130.3125 676.0469,130.5 675.9375,130.6563 C675.7656,130.875 675.5,131.0156 675.2344,131.0156 C675.0156,131.0156 674.7813,130.9063 674.6406,130.7656 C674.5,130.6406 674.4688,130.5156 674.4063,130.1094 C674.3125,129.7031 674.1406,129.4844 673.6563,129.2031 C673.1875,128.9531 672.5781,128.7969 672,128.7969 C670.2656,128.7969 669.0156,130.1094 669.0156,131.8906 L669.0156,132.9844 C669.0156,134.6875 670.3125,135.7813 672.3594,135.7813 C673.125,135.7813 673.8125,135.6563 674.2344,135.3906 C674.4219,135.2969 674.4219,135.2969 674.875,134.8125 C675.0625,134.625 675.2656,134.5469 675.4844,134.5469 C675.9531,134.5469 676.3438,134.9375 676.3438,135.3906 C676.3438,135.7813 676.0156,136.2344 675.4375,136.6406 C674.6875,137.1875 673.5313,137.4844 672.3125,137.4844 C669.4219,137.4844 667.3125,135.5938 667.3125,133.0156 L667.3125,131.8906 C667.3125,129.1719 669.3125,127.0938 671.9375,127.0938 C672.8125,127.0938 673.4063,127.2344 674.3438,127.6719 Z "/><text fill="#000000" font-family="sans-serif" font-size="12" lengthAdjust="spacingAndGlyphs" textLength="120" x="686" y="136.1543">RenderStateStroke</text><line style="stroke: #A80036; stroke-width: 1.5;" x1="658" x2="808" y1="148" y2="148"/><line style="stroke: #A80036; stroke-width: 1.5;" x1="658" x2="808" y1="156" y2="156"/><!--class IRenderStateShape--><rect fill="#FEFECE" filter="url(#fhy97vgl5zxts)" height="48" id="IRenderStateShape" style="stroke: #A80036; stroke-width: 1.5;" width="155" x="846.5" y="8"/><ellipse cx="861.5" cy="24" fill="#B4A7E5" rx="11" ry="11" style="stroke: #A80036; stroke-width: 1.0;"/><path d="M862.4531,20.7813 L862.4531,27.2969 L864.1719,27.2969 C864.625,27.2969 864.7656,27.3281 864.9375,27.4531 C865.1719,27.625 865.2813,27.875 865.2813,28.1563 C865.2813,28.7188 864.9219,29 864.1719,29 L859.0313,29 C858.625,29 858.4219,28.9531 858.2656,28.8281 C858.0469,28.6719 857.9063,28.4063 857.9063,28.1563 C857.9063,27.8594 858.0625,27.5781 858.3125,27.4219 C858.4688,27.3125 858.5938,27.2969 859.0313,27.2969 L860.75,27.2969 L860.75,20.7813 L859.0313,20.7813 C858.6094,20.7813 858.4219,20.75 858.2656,20.6406 C858.0469,20.4688 857.9063,20.2188 857.9063,19.9375 C857.9063,19.6563 858.0625,19.3594 858.3125,19.2031 C858.4688,19.1094 858.5938,19.0938 859.0313,19.0938 L864.1719,19.0938 C864.625,19.0938 864.7656,19.125 864.9375,19.2344 C865.1719,19.4063 865.2813,19.6719 865.2813,19.9375 C865.2813,20.2344 865.1406,20.5156 864.875,20.6719 C864.75,20.75 864.5625,20.7813 864.1719,20.7813 Z "/><text fill="#000000" font-family="sans-serif" font-size="12" font-style="italic" lengthAdjust="spacingAndGlyphs" textLength="123" x="875.5" y="28.1543">IRenderStateShape</text><line style="stroke: #A80036; stroke-width: 1.5;" x1="847.5" x2="1000.5" y1="40" y2="40"/><line style="stroke: #A80036; stroke-width: 1.5;" x1="847.5" x2="1000.5" y1="48" y2="48"/><!--class RenderStateShape--><rect fill="#FEFECE" filter="url(#fhy97vgl5zxts)" height="48" id="RenderStateShape" style="stroke: #A80036; stroke-width: 1.5;" width="151" x="846.5" y="116"/><ellipse cx="861.5" cy="132" fill="#ADD1B2" rx="11" ry="11" style="stroke: #A80036; stroke-width: 1.0;"/><path d="M863.8438,127.6719 L864.0156,127.75 C864.2344,127.4375 864.4375,127.3438 864.7344,127.3438 C865.0313,127.3438 865.3125,127.4844 865.4688,127.75 C865.5625,127.9063 865.5781,128.0313 865.5781,128.4688 L865.5781,129.8906 C865.5781,130.3125 865.5469,130.5 865.4375,130.6563 C865.2656,130.875 865,131.0156 864.7344,131.0156 C864.5156,131.0156 864.2813,130.9063 864.1406,130.7656 C864,130.6406 863.9688,130.5156 863.9063,130.1094 C863.8125,129.7031 863.6406,129.4844 863.1563,129.2031 C862.6875,128.9531 862.0781,128.7969 861.5,128.7969 C859.7656,128.7969 858.5156,130.1094 858.5156,131.8906 L858.5156,132.9844 C858.5156,134.6875 859.8125,135.7813 861.8594,135.7813 C862.625,135.7813 863.3125,135.6563 863.7344,135.3906 C863.9219,135.2969 863.9219,135.2969 864.375,134.8125 C864.5625,134.625 864.7656,134.5469 864.9844,134.5469 C865.4531,134.5469 865.8438,134.9375 865.8438,135.3906 C865.8438,135.7813 865.5156,136.2344 864.9375,136.6406 C864.1875,137.1875 863.0313,137.4844 861.8125,137.4844 C858.9219,137.4844 856.8125,135.5938 856.8125,133.0156 L856.8125,131.8906 C856.8125,129.1719 858.8125,127.0938 861.4375,127.0938 C862.3125,127.0938 862.9063,127.2344 863.8438,127.6719 Z "/><text fill="#000000" font-family="sans-serif" font-size="12" lengthAdjust="spacingAndGlyphs" textLength="119" x="875.5" y="136.1543">RenderStateShape</text><line style="stroke: #A80036; stroke-width: 1.5;" x1="847.5" x2="996.5" y1="148" y2="148"/><line style="stroke: #A80036; stroke-width: 1.5;" x1="847.5" x2="996.5" y1="156" y2="156"/><!--class IRenderStateItem--><rect fill="#FEFECE" filter="url(#fhy97vgl5zxts)" height="48" id="IRenderStateItem" style="stroke: #A80036; stroke-width: 1.5;" width="143" x="1036.5" y="8"/><ellipse cx="1051.5" cy="24" fill="#B4A7E5" rx="11" ry="11" style="stroke: #A80036; stroke-width: 1.0;"/><path d="M1052.4531,20.7813 L1052.4531,27.2969 L1054.1719,27.2969 C1054.625,27.2969 1054.7656,27.3281 1054.9375,27.4531 C1055.1719,27.625 1055.2813,27.875 1055.2813,28.1563 C1055.2813,28.7188 1054.9219,29 1054.1719,29 L1049.0313,29 C1048.625,29 1048.4219,28.9531 1048.2656,28.8281 C1048.0469,28.6719 1047.9063,28.4063 1047.9063,28.1563 C1047.9063,27.8594 1048.0625,27.5781 1048.3125,27.4219 C1048.4688,27.3125 1048.5938,27.2969 1049.0313,27.2969 L1050.75,27.2969 L1050.75,20.7813 L1049.0313,20.7813 C1048.6094,20.7813 1048.4219,20.75 1048.2656,20.6406 C1048.0469,20.4688 1047.9063,20.2188 1047.9063,19.9375 C1047.9063,19.6563 1048.0625,19.3594 1048.3125,19.2031 C1048.4688,19.1094 1048.5938,19.0938 1049.0313,19.0938 L1054.1719,19.0938 C1054.625,19.0938 1054.7656,19.125 1054.9375,19.2344 C1055.1719,19.4063 1055.2813,19.6719 1055.2813,19.9375 C1055.2813,20.2344 1055.1406,20.5156 1054.875,20.6719 C1054.75,20.75 1054.5625,20.7813 1054.1719,20.7813 Z "/><text fill="#000000" font-family="sans-serif" font-size="12" font-style="italic" lengthAdjust="spacingAndGlyphs" textLength="111" x="1065.5" y="28.1543">IRenderStateItem</text><line style="stroke: #A80036; stroke-width: 1.5;" x1="1037.5" x2="1178.5" y1="40" y2="40"/><line style="stroke: #A80036; stroke-width: 1.5;" x1="1037.5" x2="1178.5" y1="48" y2="48"/><!--class RenderStateItem--><rect fill="#FEFECE" filter="url(#fhy97vgl5zxts)" height="48" id="RenderStateItem" style="stroke: #A80036; stroke-width: 1.5;" width="138" x="1037" y="116"/><ellipse cx="1052" cy="132" fill="#ADD1B2" rx="11" ry="11" style="stroke: #A80036; stroke-width: 1.0;"/><path d="M1054.3438,127.6719 L1054.5156,127.75 C1054.7344,127.4375 1054.9375,127.3438 1055.2344,127.3438 C1055.5313,127.3438 1055.8125,127.4844 1055.9688,127.75 C1056.0625,127.9063 1056.0781,128.0313 1056.0781,128.4688 L1056.0781,129.8906 C1056.0781,130.3125 1056.0469,130.5 1055.9375,130.6563 C1055.7656,130.875 1055.5,131.0156 1055.2344,131.0156 C1055.0156,131.0156 1054.7813,130.9063 1054.6406,130.7656 C1054.5,130.6406 1054.4688,130.5156 1054.4063,130.1094 C1054.3125,129.7031 1054.1406,129.4844 1053.6563,129.2031 C1053.1875,128.9531 1052.5781,128.7969 1052,128.7969 C1050.2656,128.7969 1049.0156,130.1094 1049.0156,131.8906 L1049.0156,132.9844 C1049.0156,134.6875 1050.3125,135.7813 1052.3594,135.7813 C1053.125,135.7813 1053.8125,135.6563 1054.2344,135.3906 C1054.4219,135.2969 1054.4219,135.2969 1054.875,134.8125 C1055.0625,134.625 1055.2656,134.5469 1055.4844,134.5469 C1055.9531,134.5469 1056.3438,134.9375 1056.3438,135.3906 C1056.3438,135.7813 1056.0156,136.2344 1055.4375,136.6406 C1054.6875,137.1875 1053.5313,137.4844 1052.3125,137.4844 C1049.4219,137.4844 1047.3125,135.5938 1047.3125,133.0156 L1047.3125,131.8906 C1047.3125,129.1719 1049.3125,127.0938 1051.9375,127.0938 C1052.8125,127.0938 1053.4063,127.2344 1054.3438,127.6719 Z "/><text fill="#000000" font-family="sans-serif" font-size="12" lengthAdjust="spacingAndGlyphs" textLength="106" x="1066" y="136.1543">RenderStateItem</text><line style="stroke: #A80036; stroke-width: 1.5;" x1="1038" x2="1174" y1="148" y2="148"/><line style="stroke: #A80036; stroke-width: 1.5;" x1="1038" x2="1174" y1="156" y2="156"/><!--class XYItemRenderer--><rect fill="#FEFECE" filter="url(#fhy97vgl5zxts)" height="48" id="XYItemRenderer" style="stroke: #A80036; stroke-width: 1.5;" width="133" x="163.5" y="224"/><ellipse cx="178.5" cy="240" fill="#B4A7E5" rx="11" ry="11" style="stroke: #A80036; stroke-width: 1.0;"/><path d="M179.4531,236.7813 L179.4531,243.2969 L181.1719,243.2969 C181.625,243.2969 181.7656,243.3281 181.9375,243.4531 C182.1719,243.625 182.2813,243.875 182.2813,244.1563 C182.2813,244.7188 181.9219,245 181.1719,245 L176.0313,245 C175.625,245 175.4219,244.9531 175.2656,244.8281 C175.0469,244.6719 174.9063,244.4063 174.9063,244.1563 C174.9063,243.8594 175.0625,243.5781 175.3125,243.4219 C175.4688,243.3125 175.5938,243.2969 176.0313,243.2969 L177.75,243.2969 L177.75,236.7813 L176.0313,236.7813 C175.6094,236.7813 175.4219,236.75 175.2656,236.6406 C175.0469,236.4688 174.9063,236.2188 174.9063,235.9375 C174.9063,235.6563 175.0625,235.3594 175.3125,235.2031 C175.4688,235.1094 175.5938,235.0938 176.0313,235.0938 L181.1719,235.0938 C181.625,235.0938 181.7656,235.125 181.9375,235.2344 C182.1719,235.4063 182.2813,235.6719 182.2813,235.9375 C182.2813,236.2344 182.1406,236.5156 181.875,236.6719 C181.75,236.75 181.5625,236.7813 181.1719,236.7813 Z "/><text fill="#000000" font-family="sans-serif" font-size="12" font-style="italic" lengthAdjust="spacingAndGlyphs" textLength="101" x="192.5" y="244.1543">XYItemRenderer</text><line style="stroke: #A80036; stroke-width: 1.5;" x1="164.5" x2="295.5" y1="256" y2="256"/><line style="stroke: #A80036; stroke-width: 1.5;" x1="164.5" x2="295.5" y1="264" y2="264"/><!--class CategoryItemRenderer--><rect fill="#FEFECE" filter="url(#fhy97vgl5zxts)" height="48" id="CategoryItemRenderer" style="stroke: #A80036; stroke-width: 1.5;" width="175" x="436.5" y="224"/><ellipse cx="451.5" cy="240" fill="#B4A7E5" rx="11" ry="11" style="stroke: #A80036; stroke-width: 1.0;"/><path d="M452.4531,236.7813 L452.4531,243.2969 L454.1719,243.2969 C454.625,243.2969 454.7656,243.3281 454.9375,243.4531 C455.1719,243.625 455.2813,243.875 455.2813,244.1563 C455.2813,244.7188 454.9219,245 454.1719,245 L449.0313,245 C448.625,245 448.4219,244.9531 448.2656,244.8281 C448.0469,244.6719 447.9063,244.4063 447.9063,244.1563 C447.9063,243.8594 448.0625,243.5781 448.3125,243.4219 C448.4688,243.3125 448.5938,243.2969 449.0313,243.2969 L450.75,243.2969 L450.75,236.7813 L449.0313,236.7813 C448.6094,236.7813 448.4219,236.75 448.2656,236.6406 C448.0469,236.4688 447.9063,236.2188 447.9063,235.9375 C447.9063,235.6563 448.0625,235.3594 448.3125,235.2031 C448.4688,235.1094 448.5938,235.0938 449.0313,235.0938 L454.1719,235.0938 C454.625,235.0938 454.7656,235.125 454.9375,235.2344 C455.1719,235.4063 455.2813,235.6719 455.2813,235.9375 C455.2813,236.2344 455.1406,236.5156 454.875,236.6719 C454.75,236.75 454.5625,236.7813 454.1719,236.7813 Z "/><text fill="#000000" font-family="sans-serif" font-size="12" font-style="italic" lengthAdjust="spacingAndGlyphs" textLength="143" x="465.5" y="244.1543">CategoryItemRenderer</text><line style="stroke: #A80036; stroke-width: 1.5;" x1="437.5" x2="610.5" y1="256" y2="256"/><line style="stroke: #A80036; stroke-width: 1.5;" x1="437.5" x2="610.5" y1="264" y2="264"/><!--class PolarItemRenderer--><rect fill="#FEFECE" filter="url(#fhy97vgl5zxts)" height="48" id="PolarItemRenderer" style="stroke: #A80036; stroke-width: 1.5;" width="149" x="881.5" y="224"/><ellipse cx="896.5" cy="240" fill="#B4A7E5" rx="11" ry="11" style="stroke: #A80036; stroke-width: 1.0;"/><path d="M897.4531,236.7813 L897.4531,243.2969 L899.1719,243.2969 C899.625,243.2969 899.7656,243.3281 899.9375,243.4531 C900.1719,243.625 900.2813,243.875 900.2813,244.1563 C900.2813,244.7188 899.9219,245 899.1719,245 L894.0313,245 C893.625,245 893.4219,244.9531 893.2656,244.8281 C893.0469,244.6719 892.9063,244.4063 892.9063,244.1563 C892.9063,243.8594 893.0625,243.5781 893.3125,243.4219 C893.4688,243.3125 893.5938,243.2969 894.0313,243.2969 L895.75,243.2969 L895.75,236.7813 L894.0313,236.7813 C893.6094,236.7813 893.4219,236.75 893.2656,236.6406 C893.0469,236.4688 892.9063,236.2188 892.9063,235.9375 C892.9063,235.6563 893.0625,235.3594 893.3125,235.2031 C893.4688,235.1094 893.5938,235.0938 894.0313,235.0938 L899.1719,235.0938 C899.625,235.0938 899.7656,235.125 899.9375,235.2344 C900.1719,235.4063 900.2813,235.6719 900.2813,235.9375 C900.2813,236.2344 900.1406,236.5156 899.875,236.6719 C899.75,236.75 899.5625,236.7813 899.1719,236.7813 Z "/><text fill="#000000" font-family="sans-serif" font-size="12" font-style="italic" lengthAdjust="spacingAndGlyphs" textLength="117" x="910.5" y="244.1543">PolarItemRenderer</text><line style="stroke: #A80036; stroke-width: 1.5;" x1="882.5" x2="1029.5" y1="256" y2="256"/><line style="stroke: #A80036; stroke-width: 1.5;" x1="882.5" x2="1029.5" y1="264" y2="264"/><!--link AbstractRenderer to AbstractXYItemRenderer--><path d="M641.763,269.246 C637.45,270.181 633.178,271.103 629,272 C524.021,294.526 403.299,319.511 322.385,336.125 " fill="none" id="AbstractRenderer-AbstractXYItemRenderer" style="stroke: #A80036; stroke-width: 1.0;"/><polygon fill="none" points="640.383,262.382,661.416,264.955,643.369,276.06,640.383,262.382" style="stroke: #A80036; stroke-width: 1.0;"/><!--link AbstractRenderer to AbstractCategoryItemRenderer--><path d="M669.509,281.201 C637.287,297.543 598.883,317.021 569.622,331.862 " fill="none" id="AbstractRenderer-AbstractCategoryItemRenderer" style="stroke: #A80036; stroke-width: 1.0;"/><polygon fill="none" points="666.647,274.804,687.65,272,672.979,287.29,666.647,274.804" style="stroke: #A80036; stroke-width: 1.0;"/><!--link AbstractXYItemRenderer to InheritedXYItemRendererClass--><path d="M225.177,399.958 C223.841,411.862 222.308,425.519 220.685,439.974 " fill="none" id="AbstractXYItemRenderer-InheritedXYItemRendererClass" style="stroke: #A80036; stroke-width: 1.0;"/><polygon fill="none" points="218.223,399.154,227.411,380.06,232.136,400.716,218.223,399.154" style="stroke: #A80036; stroke-width: 1.0;"/><!--link AbstractCategoryItemRenderer to InheritedCategoryItemRendererClass--><path d="M534.277,399.615 C541.662,430.235 551.875,472.586 560.959,510.254 " fill="none" id="AbstractCategoryItemRenderer-InheritedCategoryItemRendererClass" style="stroke: #A80036; stroke-width: 1.0;"/><polygon fill="none" points="527.445,401.144,529.561,380.06,541.055,397.862,527.445,401.144" style="stroke: #A80036; stroke-width: 1.0;"/><!--link InheritedXYItemRendererClass to InheritedXYItemRendererClassExtenders--><path d="M194.325,777.06 C193.493,794.095 192.671,810.929 191.894,826.818 " fill="none" id="InheritedXYItemRendererClass-InheritedXYItemRendererClassExtenders" style="stroke: #A80036; stroke-width: 1.0;"/><polygon fill="none" points="187.337,776.649,195.305,757.015,201.32,777.333,187.337,776.649" style="stroke: #A80036; stroke-width: 1.0;"/><!--link InheritedCategoryItemRendererClass to InheritedCategoryItemRendererClassExtenders--><path d="M587.254,707.037 C588.973,742.223 590.884,781.35 592.613,816.734 " fill="none" id="InheritedCategoryItemRendererClass-InheritedCategoryItemRendererClassExtenders" style="stroke: #A80036; stroke-width: 1.0;"/><polygon fill="none" points="580.251,707.152,586.267,686.834,594.234,706.468,580.251,707.152" style="stroke: #A80036; stroke-width: 1.0;"/><!--link InheritedCategoryItemRendererClassExtenders to InheritedCategoryItemRendererClassExtenders--><path d="M792.636,876.456 C813.837,886.315 827.5,903.496 827.5,928 C827.5,945.0379 820.895,958.5356 809.743,968.4933 " fill="none" id="InheritedCategoryItemRendererClassExtenders-InheritedCategoryItemRendererClassExtenders" style="stroke: #A80036; stroke-width: 1.0;"/><polygon fill="none" points="813.234,974.5714,792.636,979.5443,805.637,962.8118,813.234,974.5714" style="stroke: #A80036; stroke-width: 1.0;"/><!--link AbstractRenderer to DefaultPolarItemRenderer--><path d="M799.782,280.744 C834.357,297.179 875.809,316.882 907.322,331.862 " fill="none" id="AbstractRenderer-DefaultPolarItemRenderer" style="stroke: #A80036; stroke-width: 1.0;"/><polygon fill="none" points="796.446,286.909,781.388,272,802.456,274.264,796.446,286.909" style="stroke: #A80036; stroke-width: 1.0;"/><!--link AbstractRenderer to WaferMapRenderer--><path d="M739.088,292.024 C741.006,305.579 743.053,320.038 744.7,331.678 " fill="none" id="AbstractRenderer-WaferMapRenderer" style="stroke: #A80036; stroke-width: 1.0;"/><polygon fill="none" points="732.126,292.784,736.255,272,745.988,290.822,732.126,292.784" style="stroke: #A80036; stroke-width: 1.0;"/><!--link IRenderStateVisibility to RenderStateVisibility--><path d="M357.406,76.024 C357.534,89.579 357.67,104.038 357.78,115.678 " fill="none" id="IRenderStateVisibility-RenderStateVisibility" style="stroke: #A80036; stroke-width: 1.0; stroke-dasharray: 7.0,7.0;"/><polygon fill="none" points="350.406,76.066,357.217,56,364.405,75.933,350.406,76.066" style="stroke: #A80036; stroke-width: 1.0;"/><!--link RenderStateVisibility to AbstractRenderer--><path d="M438.447,163.74 C504.624,182.446 597.557,208.715 661.238,226.715 " fill="none" id="RenderStateVisibility-AbstractRenderer" style="stroke: #A80036; stroke-width: 1.0;"/><!--link IRenderStatePaint to RenderStatePaint--><path d="M547.406,76.024 C547.534,89.579 547.67,104.038 547.78,115.678 " fill="none" id="IRenderStatePaint-RenderStatePaint" style="stroke: #A80036; stroke-width: 1.0; stroke-dasharray: 7.0,7.0;"/><polygon fill="none" points="540.406,76.066,547.217,56,554.405,75.933,540.406,76.066" style="stroke: #A80036; stroke-width: 1.0;"/><!--link RenderStatePaint to AbstractRenderer--><path d="M588.142,164 C619.067,181.719 661.632,206.108 692.617,223.862 " fill="none" id="RenderStatePaint-AbstractRenderer" style="stroke: #A80036; stroke-width: 1.0;"/><!--link IRenderStateStroke to RenderStateStroke--><path d="M733,76.024 C733,89.579 733,104.038 733,115.678 " fill="none" id="IRenderStateStroke-RenderStateStroke" style="stroke: #A80036; stroke-width: 1.0; stroke-dasharray: 7.0,7.0;"/><polygon fill="none" points="726,76,733,56,740,76,726,76" style="stroke: #A80036; stroke-width: 1.0;"/><!--link RenderStateStroke to AbstractRenderer--><path d="M733,164 C733,181.658 733,205.941 733,223.678 " fill="none" id="RenderStateStroke-AbstractRenderer" style="stroke: #A80036; stroke-width: 1.0;"/><!--link IRenderStateShape to RenderStateShape--><path d="M923.188,76.024 C922.932,89.579 922.66,104.038 922.44,115.678 " fill="none" id="IRenderStateShape-RenderStateShape" style="stroke: #A80036; stroke-width: 1.0; stroke-dasharray: 7.0,7.0;"/><polygon fill="none" points="916.19,75.865,923.566,56,930.187,76.129,916.19,75.865" style="stroke: #A80036; stroke-width: 1.0;"/><!--link RenderStateShape to AbstractRenderer--><path d="M880.99,164 C849.397,181.719 805.911,206.108 774.256,223.862 " fill="none" id="RenderStateShape-AbstractRenderer" style="stroke: #A80036; stroke-width: 1.0;"/><!--link IRenderStateItem to RenderStateItem--><path d="M1107.19,76.024 C1106.93,89.579 1106.66,104.038 1106.44,115.678 " fill="none" id="IRenderStateItem-RenderStateItem" style="stroke: #A80036; stroke-width: 1.0; stroke-dasharray: 7.0,7.0;"/><polygon fill="none" points="1100.19,75.865,1107.57,56,1114.19,76.129,1100.19,75.865" style="stroke: #A80036; stroke-width: 1.0;"/><!--link RenderStateItem to AbstractRenderer--><path d="M1036.72,160.689 C970.667,179.459 871.634,207.603 804.772,226.604 " fill="none" id="RenderStateItem-AbstractRenderer" style="stroke: #A80036; stroke-width: 1.0;"/><!--link XYItemRenderer to AbstractXYItemRenderer--><path d="M230,292.024 C230,305.579 230,320.038 230,331.678 " fill="none" id="XYItemRenderer-AbstractXYItemRenderer" style="stroke: #A80036; stroke-width: 1.0; stroke-dasharray: 7.0,7.0;"/><polygon fill="none" points="223,292,230,272,237,292,223,292" style="stroke: #A80036; stroke-width: 1.0;"/><!--link CategoryItemRenderer to AbstractCategoryItemRenderer--><path d="M524,292.024 C524,305.579 524,320.038 524,331.678 " fill="none" id="CategoryItemRenderer-AbstractCategoryItemRenderer" style="stroke: #A80036; stroke-width: 1.0; stroke-dasharray: 7.0,7.0;"/><polygon fill="none" points="517,292,524,272,531,292,517,292" style="stroke: #A80036; stroke-width: 1.0;"/><!--link PolarItemRenderer to DefaultPolarItemRenderer--><path d="M956,292.024 C956,305.579 956,320.038 956,331.678 " fill="none" id="PolarItemRenderer-DefaultPolarItemRenderer" style="stroke: #A80036; stroke-width: 1.0; stroke-dasharray: 7.0,7.0;"/><polygon fill="none" points="949,292,956,272,963,292,949,292" style="stroke: #A80036; stroke-width: 1.0;"/><!--
@startuml
AbstractRenderer <|- - AbstractXYItemRenderer
AbstractRenderer <|- - AbstractCategoryItemRenderer
AbstractXYItemRenderer <|- - InheritedXYItemRendererClass
AbstractCategoryItemRenderer <|- - InheritedCategoryItemRendererClass
InheritedXYItemRendererClass <|- - InheritedXYItemRendererClassExtenders
InheritedCategoryItemRendererClass <|- - InheritedCategoryItemRendererClassExtenders
InheritedCategoryItemRendererClassExtenders - -|> InheritedCategoryItemRendererClassExtenders
AbstractRenderer <|- - DefaultPolarItemRenderer
AbstractRenderer <|- - WaferMapRenderer


interface IRenderStateVisibility
IRenderStateVisibility <|.. RenderStateVisibility
RenderStateVisibility - - AbstractRenderer

interface IRenderStatePaint
IRenderStatePaint <|.. RenderStatePaint
RenderStatePaint - - AbstractRenderer

interface IRenderStateStroke
IRenderStateStroke <|.. RenderStateStroke
RenderStateStroke - - AbstractRenderer

interface IRenderStateShape
IRenderStateShape <|.. RenderStateShape
RenderStateShape - - AbstractRenderer

interface IRenderStateItem
IRenderStateItem <|.. RenderStateItem
RenderStateItem - - AbstractRenderer


class InheritedXYItemRendererClass {
    The list of classes that actually inherit and fall within
    our problem domain are listed below:
    ..
    CandlestickRenderer
    HighLowRenderer
    SamplingXYLineRenderer
    StandardXYItemRenderer
    VectorRenderer
    WindItemRenderer
    XYAreaRenderer
    XYAreaRenderer2
    XYBarRenderer
    XYBlockRenderer
    XYBoxAndWhiskersRenderer
    XYBubbleRenderer
    XYLineAndShapeRenderer
    XYDifferenceRenderer
    XYDotRenderer
    XYShapeRenderer
    XYStepAreaRenderer
    XYStepRenderer
    YIntervalRenderer
}

class InheritedXYItemRendererClassExtenders {
    Of course, these classes can also have subclasses that also
    fall in our problem domain.
    These include:
    ..
    ClusteredXYBarRenderer (extends XYBarRenderer)
    StackedXYBarRenderer (extends XYBarRenderer)
    CyclicXYItemRenderer (extends StandardXYItemRenderer)
    DefaultXYItemRenderer (extends XYLineAndShapeRenderer)
    DeviationRenderer (extends XYLineAndShapeRenderer)
    XYErrorRenderer (extends XYLineAndShapeRenderer)
    XYSplineRenderer (extends XYLineAndShapeRenderer)
    StackedXYAreaRenderer (extends XYAreaRenderer)
    StackedXYAreaRenderer2 (extends XYAreaRenderer2)
}

class InheritedCategoryItemRendererClass {
    The list of classes that actually inherit and fall within
    our problem domain are listed below:
    ..
    AreaRenderer
    BarRenderer
    BoxAndWhiskerRenderer
    CategoryStepRenderer
    LevelRenderer
    LineAndShapeRenderer
    MinMaxCategoryRenderer
    ScatterRenderer
}

class InheritedCategoryItemRendererClassExtenders {
    Of course, these classes can also have subclasses that also
    fall in our problem domain.
    These include:
    ..
    DefaultCategoryItemRenderer (extends LineAndShapeRenderer)
    StatisticalCategoryItemRenderer (extends LineAndShapeRenderer)
    IntervalBarRenderer (extends BarRenderer)
    StackedBarRenderer (extends BarRenderer)
    LayeredBarRenderer (extends BarRenderer)
    StatisticalBarRenderer (extends BarRenderer)
    WaterfallBarRenderer (extends BarRenderer)
    StackedAreaRenderer (extends AreaRenderer)
    ..
    GroupedStackedBarRenderer (extends StackedBarRenderer)
    GhanttRenderer (extends IntervalBarRenderer)
}

interface XYItemRenderer
interface CategoryItemRenderer
interface PolarItemRenderer

XYItemRenderer <|.. AbstractXYItemRenderer
CategoryItemRenderer <|.. AbstractCategoryItemRenderer
PolarItemRenderer <|.. DefaultPolarItemRenderer
@enduml

PlantUML version 1.2019.07beta1(Unknown compile time)
(GPL source distribution)
Java Runtime: Java(TM) SE Runtime Environment
JVM: Java HotSpot(TM) 64-Bit Server VM
Java Version: 1.7.0_25-b15
Operating System: Linux
Default Encoding: UTF-8
Language: en
Country: US
--></g></svg>