<?xml version="1.0" encoding="UTF-8" standalone="no"?><svg xmlns="http://www.w3.org/2000/svg" xmlns:xlink="http://www.w3.org/1999/xlink" contentScriptType="application/ecmascript" contentStyleType="text/css" height="834px" preserveAspectRatio="none" style="width:1128px;height:834px;" version="1.1" viewBox="0 0 1128 834" width="1128px" zoomAndPan="magnify"><defs><filter height="300%" id="f2v4rberk659x" width="300%" x="-1" y="-1"><feGaussianBlur result="blurOut" stdDeviation="2.0"/><feColorMatrix in="blurOut" result="blurOut2" type="matrix" values="0 0 0 0 0 0 0 0 0 0 0 0 0 0 0 0 0 0 .4 0"/><feOffset dx="4.0" dy="4.0" in="blurOut2" result="blurOut3"/><feBlend in="SourceGraphic" in2="blurOut3" mode="normal"/></filter></defs><g><!--class AbstractRenderer--><rect fill="#FEFECE" filter="url(#f2v4rberk659x)" height="48" id="AbstractRenderer" style="stroke: #A80036; stroke-width: 1.5;" width="143" x="725.5" y="8"/><ellipse cx="740.5" cy="24" fill="#ADD1B2" rx="11" ry="11" style="stroke: #A80036; stroke-width: 1.0;"/><path d="M742.8438,19.6719 L743.0156,19.75 C743.2344,19.4375 743.4375,19.3438 743.7344,19.3438 C744.0313,19.3438 744.3125,19.4844 744.4688,19.75 C744.5625,19.9063 744.5781,20.0313 744.5781,20.4688 L744.5781,21.8906 C744.5781,22.3125 744.5469,22.5 744.4375,22.6563 C744.2656,22.875 744,23.0156 743.7344,23.0156 C743.5156,23.0156 743.2813,22.9063 743.1406,22.7656 C743,22.6406 742.9688,22.5156 742.9063,22.1094 C742.8125,21.7031 742.6406,21.4844 742.1563,21.2031 C741.6875,20.9531 741.0781,20.7969 740.5,20.7969 C738.7656,20.7969 737.5156,22.1094 737.5156,23.8906 L737.5156,24.9844 C737.5156,26.6875 738.8125,27.7813 740.8594,27.7813 C741.625,27.7813 742.3125,27.6563 742.7344,27.3906 C742.9219,27.2969 742.9219,27.2969 743.375,26.8125 C743.5625,26.625 743.7656,26.5469 743.9844,26.5469 C744.4531,26.5469 744.8438,26.9375 744.8438,27.3906 C744.8438,27.7813 744.5156,28.2344 743.9375,28.6406 C743.1875,29.1875 742.0313,29.4844 740.8125,29.4844 C737.9219,29.4844 735.8125,27.5938 735.8125,25.0156 L735.8125,23.8906 C735.8125,21.1719 737.8125,19.0938 740.4375,19.0938 C741.3125,19.0938 741.9063,19.2344 742.8438,19.6719 Z "/><text fill="#000000" font-family="sans-serif" font-size="12" lengthAdjust="spacingAndGlyphs" textLength="111" x="754.5" y="28.1543">AbstractRenderer</text><line style="stroke: #A80036; stroke-width: 1.5;" x1="726.5" x2="867.5" y1="40" y2="40"/><line style="stroke: #A80036; stroke-width: 1.5;" x1="726.5" x2="867.5" y1="48" y2="48"/><!--class AbstractXYItemRenderer--><rect fill="#FEFECE" filter="url(#f2v4rberk659x)" height="48" id="AbstractXYItemRenderer" style="stroke: #A80036; stroke-width: 1.5;" width="184" x="243" y="116"/><ellipse cx="258" cy="132" fill="#ADD1B2" rx="11" ry="11" style="stroke: #A80036; stroke-width: 1.0;"/><path d="M260.3438,127.6719 L260.5156,127.75 C260.7344,127.4375 260.9375,127.3438 261.2344,127.3438 C261.5313,127.3438 261.8125,127.4844 261.9688,127.75 C262.0625,127.9063 262.0781,128.0313 262.0781,128.4688 L262.0781,129.8906 C262.0781,130.3125 262.0469,130.5 261.9375,130.6563 C261.7656,130.875 261.5,131.0156 261.2344,131.0156 C261.0156,131.0156 260.7813,130.9063 260.6406,130.7656 C260.5,130.6406 260.4688,130.5156 260.4063,130.1094 C260.3125,129.7031 260.1406,129.4844 259.6563,129.2031 C259.1875,128.9531 258.5781,128.7969 258,128.7969 C256.2656,128.7969 255.0156,130.1094 255.0156,131.8906 L255.0156,132.9844 C255.0156,134.6875 256.3125,135.7813 258.3594,135.7813 C259.125,135.7813 259.8125,135.6563 260.2344,135.3906 C260.4219,135.2969 260.4219,135.2969 260.875,134.8125 C261.0625,134.625 261.2656,134.5469 261.4844,134.5469 C261.9531,134.5469 262.3438,134.9375 262.3438,135.3906 C262.3438,135.7813 262.0156,136.2344 261.4375,136.6406 C260.6875,137.1875 259.5313,137.4844 258.3125,137.4844 C255.4219,137.4844 253.3125,135.5938 253.3125,133.0156 L253.3125,131.8906 C253.3125,129.1719 255.3125,127.0938 257.9375,127.0938 C258.8125,127.0938 259.4063,127.2344 260.3438,127.6719 Z "/><text fill="#000000" font-family="sans-serif" font-size="12" lengthAdjust="spacingAndGlyphs" textLength="152" x="272" y="136.1543">AbstractXYItemRenderer</text><line style="stroke: #A80036; stroke-width: 1.5;" x1="244" x2="426" y1="148" y2="148"/><line style="stroke: #A80036; stroke-width: 1.5;" x1="244" x2="426" y1="156" y2="156"/><!--class AbstractCategoryItemRenderer--><rect fill="#FEFECE" filter="url(#f2v4rberk659x)" height="48" id="AbstractCategoryItemRenderer" style="stroke: #A80036; stroke-width: 1.5;" width="226" x="475" y="116"/><ellipse cx="490" cy="132" fill="#ADD1B2" rx="11" ry="11" style="stroke: #A80036; stroke-width: 1.0;"/><path d="M492.3438,127.6719 L492.5156,127.75 C492.7344,127.4375 492.9375,127.3438 493.2344,127.3438 C493.5313,127.3438 493.8125,127.4844 493.9688,127.75 C494.0625,127.9063 494.0781,128.0313 494.0781,128.4688 L494.0781,129.8906 C494.0781,130.3125 494.0469,130.5 493.9375,130.6563 C493.7656,130.875 493.5,131.0156 493.2344,131.0156 C493.0156,131.0156 492.7813,130.9063 492.6406,130.7656 C492.5,130.6406 492.4688,130.5156 492.4063,130.1094 C492.3125,129.7031 492.1406,129.4844 491.6563,129.2031 C491.1875,128.9531 490.5781,128.7969 490,128.7969 C488.2656,128.7969 487.0156,130.1094 487.0156,131.8906 L487.0156,132.9844 C487.0156,134.6875 488.3125,135.7813 490.3594,135.7813 C491.125,135.7813 491.8125,135.6563 492.2344,135.3906 C492.4219,135.2969 492.4219,135.2969 492.875,134.8125 C493.0625,134.625 493.2656,134.5469 493.4844,134.5469 C493.9531,134.5469 494.3438,134.9375 494.3438,135.3906 C494.3438,135.7813 494.0156,136.2344 493.4375,136.6406 C492.6875,137.1875 491.5313,137.4844 490.3125,137.4844 C487.4219,137.4844 485.3125,135.5938 485.3125,133.0156 L485.3125,131.8906 C485.3125,129.1719 487.3125,127.0938 489.9375,127.0938 C490.8125,127.0938 491.4063,127.2344 492.3438,127.6719 Z "/><text fill="#000000" font-family="sans-serif" font-size="12" lengthAdjust="spacingAndGlyphs" textLength="194" x="504" y="136.1543">AbstractCategoryItemRenderer</text><line style="stroke: #A80036; stroke-width: 1.5;" x1="476" x2="700" y1="148" y2="148"/><line style="stroke: #A80036; stroke-width: 1.5;" x1="476" x2="700" y1="156" y2="156"/><!--class InheritedXYItemRendererClass--><rect fill="#FEFECE" filter="url(#f2v4rberk659x)" height="316.8984" id="InheritedXYItemRendererClass" style="stroke: #A80036; stroke-width: 1.5;" width="313" x="33.5" y="224"/><ellipse cx="91.75" cy="240" fill="#ADD1B2" rx="11" ry="11" style="stroke: #A80036; stroke-width: 1.0;"/><path d="M94.0938,235.6719 L94.2656,235.75 C94.4844,235.4375 94.6875,235.3438 94.9844,235.3438 C95.2813,235.3438 95.5625,235.4844 95.7188,235.75 C95.8125,235.9063 95.8281,236.0313 95.8281,236.4688 L95.8281,237.8906 C95.8281,238.3125 95.7969,238.5 95.6875,238.6563 C95.5156,238.875 95.25,239.0156 94.9844,239.0156 C94.7656,239.0156 94.5313,238.9063 94.3906,238.7656 C94.25,238.6406 94.2188,238.5156 94.1563,238.1094 C94.0625,237.7031 93.8906,237.4844 93.4063,237.2031 C92.9375,236.9531 92.3281,236.7969 91.75,236.7969 C90.0156,236.7969 88.7656,238.1094 88.7656,239.8906 L88.7656,240.9844 C88.7656,242.6875 90.0625,243.7813 92.1094,243.7813 C92.875,243.7813 93.5625,243.6563 93.9844,243.3906 C94.1719,243.2969 94.1719,243.2969 94.625,242.8125 C94.8125,242.625 95.0156,242.5469 95.2344,242.5469 C95.7031,242.5469 96.0938,242.9375 96.0938,243.3906 C96.0938,243.7813 95.7656,244.2344 95.1875,244.6406 C94.4375,245.1875 93.2813,245.4844 92.0625,245.4844 C89.1719,245.4844 87.0625,243.5938 87.0625,241.0156 L87.0625,239.8906 C87.0625,237.1719 89.0625,235.0938 91.6875,235.0938 C92.5625,235.0938 93.1563,235.2344 94.0938,235.6719 Z "/><text fill="#000000" font-family="sans-serif" font-size="12" lengthAdjust="spacingAndGlyphs" textLength="188" x="112.25" y="244.1543">InheritedXYItemRendererClass</text><line style="stroke: #A80036; stroke-width: 1.5;" x1="34.5" x2="345.5" y1="256" y2="256"/><text fill="#000000" font-family="sans-serif" font-size="11" lengthAdjust="spacingAndGlyphs" textLength="301" x="39.5" y="270.2104">The list of classes that actually inherit and fall within</text><text fill="#000000" font-family="sans-serif" font-size="11" lengthAdjust="spacingAndGlyphs" textLength="215" x="39.5" y="283.0151">our problem domain are listed below:</text><line style="stroke: #A80036; stroke-width: 1.0; stroke-dasharray: 1.0,2.0;" x1="34.5" x2="345.5" y1="289.6094" y2="289.6094"/><text fill="#000000" font-family="sans-serif" font-size="11" lengthAdjust="spacingAndGlyphs" textLength="117" x="39.5" y="303.8198">CandlestickRenderer</text><text fill="#000000" font-family="sans-serif" font-size="11" lengthAdjust="spacingAndGlyphs" textLength="99" x="39.5" y="316.6245">HighLowRenderer</text><text fill="#000000" font-family="sans-serif" font-size="11" lengthAdjust="spacingAndGlyphs" textLength="142" x="39.5" y="329.4292">SamplingXYLineRenderer</text><text fill="#000000" font-family="sans-serif" font-size="11" lengthAdjust="spacingAndGlyphs" textLength="143" x="39.5" y="342.2339">StandardXYItemRenderer</text><text fill="#000000" font-family="sans-serif" font-size="11" lengthAdjust="spacingAndGlyphs" textLength="88" x="39.5" y="355.0386">VectorRenderer</text><text fill="#000000" font-family="sans-serif" font-size="11" lengthAdjust="spacingAndGlyphs" textLength="103" x="39.5" y="367.8433">WindItemRenderer</text><text fill="#000000" font-family="sans-serif" font-size="11" lengthAdjust="spacingAndGlyphs" textLength="92" x="39.5" y="380.6479">XYAreaRenderer</text><text fill="#000000" font-family="sans-serif" font-size="11" lengthAdjust="spacingAndGlyphs" textLength="99" x="39.5" y="393.4526">XYAreaRenderer2</text><text fill="#000000" font-family="sans-serif" font-size="11" lengthAdjust="spacingAndGlyphs" textLength="86" x="39.5" y="406.2573">XYBarRenderer</text><text fill="#000000" font-family="sans-serif" font-size="11" lengthAdjust="spacingAndGlyphs" textLength="96" x="39.5" y="419.062">XYBlockRenderer</text><text fill="#000000" font-family="sans-serif" font-size="11" lengthAdjust="spacingAndGlyphs" textLength="159" x="39.5" y="431.8667">XYBoxAndWhiskersRenderer</text><text fill="#000000" font-family="sans-serif" font-size="11" lengthAdjust="spacingAndGlyphs" textLength="105" x="39.5" y="444.6714">XYBubbleRenderer</text><text fill="#000000" font-family="sans-serif" font-size="11" lengthAdjust="spacingAndGlyphs" textLength="146" x="39.5" y="457.4761">XYLineAndShapeRenderer</text><text fill="#000000" font-family="sans-serif" font-size="11" lengthAdjust="spacingAndGlyphs" textLength="124" x="39.5" y="470.2808">XYDifferenceRenderer</text><text fill="#000000" font-family="sans-serif" font-size="11" lengthAdjust="spacingAndGlyphs" textLength="85" x="39.5" y="483.0854">XYDotRenderer</text><text fill="#000000" font-family="sans-serif" font-size="11" lengthAdjust="spacingAndGlyphs" textLength="102" x="39.5" y="495.8901">XYShapeRenderer</text><text fill="#000000" font-family="sans-serif" font-size="11" lengthAdjust="spacingAndGlyphs" textLength="118" x="39.5" y="508.6948">XYStepAreaRenderer</text><text fill="#000000" font-family="sans-serif" font-size="11" lengthAdjust="spacingAndGlyphs" textLength="92" x="39.5" y="521.4995">XYStepRenderer</text><text fill="#000000" font-family="sans-serif" font-size="11" lengthAdjust="spacingAndGlyphs" textLength="101" x="39.5" y="534.3042">YIntervalRenderer</text><!--class InheritedCategoryItemRendererClass--><rect fill="#FEFECE" filter="url(#f2v4rberk659x)" height="176.0469" id="InheritedCategoryItemRendererClass" style="stroke: #A80036; stroke-width: 1.5;" width="313" x="437.5" y="294.5"/><ellipse cx="475.45" cy="310.5" fill="#ADD1B2" rx="11" ry="11" style="stroke: #A80036; stroke-width: 1.0;"/><path d="M477.7938,306.1719 L477.9656,306.25 C478.1844,305.9375 478.3875,305.8438 478.6844,305.8438 C478.9813,305.8438 479.2625,305.9844 479.4188,306.25 C479.5125,306.4063 479.5281,306.5313 479.5281,306.9688 L479.5281,308.3906 C479.5281,308.8125 479.4969,309 479.3875,309.1563 C479.2156,309.375 478.95,309.5156 478.6844,309.5156 C478.4656,309.5156 478.2313,309.4063 478.0906,309.2656 C477.95,309.1406 477.9188,309.0156 477.8563,308.6094 C477.7625,308.2031 477.5906,307.9844 477.1063,307.7031 C476.6375,307.4531 476.0281,307.2969 475.45,307.2969 C473.7156,307.2969 472.4656,308.6094 472.4656,310.3906 L472.4656,311.4844 C472.4656,313.1875 473.7625,314.2813 475.8094,314.2813 C476.575,314.2813 477.2625,314.1563 477.6844,313.8906 C477.8719,313.7969 477.8719,313.7969 478.325,313.3125 C478.5125,313.125 478.7156,313.0469 478.9344,313.0469 C479.4031,313.0469 479.7938,313.4375 479.7938,313.8906 C479.7938,314.2813 479.4656,314.7344 478.8875,315.1406 C478.1375,315.6875 476.9813,315.9844 475.7625,315.9844 C472.8719,315.9844 470.7625,314.0938 470.7625,311.5156 L470.7625,310.3906 C470.7625,307.6719 472.7625,305.5938 475.3875,305.5938 C476.2625,305.5938 476.8563,305.7344 477.7938,306.1719 Z "/><text fill="#000000" font-family="sans-serif" font-size="12" lengthAdjust="spacingAndGlyphs" textLength="230" x="494.55" y="314.6543">InheritedCategoryItemRendererClass</text><line style="stroke: #A80036; stroke-width: 1.5;" x1="438.5" x2="749.5" y1="326.5" y2="326.5"/><text fill="#000000" font-family="sans-serif" font-size="11" lengthAdjust="spacingAndGlyphs" textLength="301" x="443.5" y="340.7104">The list of classes that actually inherit and fall within</text><text fill="#000000" font-family="sans-serif" font-size="11" lengthAdjust="spacingAndGlyphs" textLength="215" x="443.5" y="353.5151">our problem domain are listed below:</text><line style="stroke: #A80036; stroke-width: 1.0; stroke-dasharray: 1.0,2.0;" x1="438.5" x2="749.5" y1="360.1094" y2="360.1094"/><text fill="#000000" font-family="sans-serif" font-size="11" lengthAdjust="spacingAndGlyphs" textLength="78" x="443.5" y="374.3198">AreaRenderer</text><text fill="#000000" font-family="sans-serif" font-size="11" lengthAdjust="spacingAndGlyphs" textLength="72" x="443.5" y="387.1245">BarRenderer</text><text fill="#000000" font-family="sans-serif" font-size="11" lengthAdjust="spacingAndGlyphs" textLength="138" x="443.5" y="399.9292">BoxAndWhiskerRenderer</text><text fill="#000000" font-family="sans-serif" font-size="11" lengthAdjust="spacingAndGlyphs" textLength="129" x="443.5" y="412.7339">CategoryStepRenderer</text><text fill="#000000" font-family="sans-serif" font-size="11" lengthAdjust="spacingAndGlyphs" textLength="81" x="443.5" y="425.5386">LevelRenderer</text><text fill="#000000" font-family="sans-serif" font-size="11" lengthAdjust="spacingAndGlyphs" textLength="132" x="443.5" y="438.3433">LineAndShapeRenderer</text><text fill="#000000" font-family="sans-serif" font-size="11" lengthAdjust="spacingAndGlyphs" textLength="144" x="443.5" y="451.1479">MinMaxCategoryRenderer</text><text fill="#000000" font-family="sans-serif" font-size="11" lengthAdjust="spacingAndGlyphs" textLength="93" x="443.5" y="463.9526">ScatterRenderer</text><!--class InheritedXYItemRendererClassExtenders--><rect fill="#FEFECE" filter="url(#f2v4rberk659x)" height="201.6563" id="InheritedXYItemRendererClassExtenders" style="stroke: #A80036; stroke-width: 1.5;" width="362" x="6" y="611"/><ellipse cx="57.25" cy="627" fill="#ADD1B2" rx="11" ry="11" style="stroke: #A80036; stroke-width: 1.0;"/><path d="M59.5938,622.6719 L59.7656,622.75 C59.9844,622.4375 60.1875,622.3438 60.4844,622.3438 C60.7813,622.3438 61.0625,622.4844 61.2188,622.75 C61.3125,622.9063 61.3281,623.0313 61.3281,623.4688 L61.3281,624.8906 C61.3281,625.3125 61.2969,625.5 61.1875,625.6563 C61.0156,625.875 60.75,626.0156 60.4844,626.0156 C60.2656,626.0156 60.0313,625.9063 59.8906,625.7656 C59.75,625.6406 59.7188,625.5156 59.6563,625.1094 C59.5625,624.7031 59.3906,624.4844 58.9063,624.2031 C58.4375,623.9531 57.8281,623.7969 57.25,623.7969 C55.5156,623.7969 54.2656,625.1094 54.2656,626.8906 L54.2656,627.9844 C54.2656,629.6875 55.5625,630.7813 57.6094,630.7813 C58.375,630.7813 59.0625,630.6563 59.4844,630.3906 C59.6719,630.2969 59.6719,630.2969 60.125,629.8125 C60.3125,629.625 60.5156,629.5469 60.7344,629.5469 C61.2031,629.5469 61.5938,629.9375 61.5938,630.3906 C61.5938,630.7813 61.2656,631.2344 60.6875,631.6406 C59.9375,632.1875 58.7813,632.4844 57.5625,632.4844 C54.6719,632.4844 52.5625,630.5938 52.5625,628.0156 L52.5625,626.8906 C52.5625,624.1719 54.5625,622.0938 57.1875,622.0938 C58.0625,622.0938 58.6563,622.2344 59.5938,622.6719 Z "/><text fill="#000000" font-family="sans-serif" font-size="12" lengthAdjust="spacingAndGlyphs" textLength="251" x="77.75" y="631.1543">InheritedXYItemRendererClassExtenders</text><line style="stroke: #A80036; stroke-width: 1.5;" x1="7" x2="367" y1="643" y2="643"/><text fill="#000000" font-family="sans-serif" font-size="11" lengthAdjust="spacingAndGlyphs" textLength="350" x="12" y="657.2104">Of course, these classes can also have subclasses that also</text><text fill="#000000" font-family="sans-serif" font-size="11" lengthAdjust="spacingAndGlyphs" textLength="155" x="12" y="670.0151">fall in our problem domain.</text><text fill="#000000" font-family="sans-serif" font-size="11" lengthAdjust="spacingAndGlyphs" textLength="83" x="12" y="682.8198">These include:</text><line style="stroke: #A80036; stroke-width: 1.0; stroke-dasharray: 1.0,2.0;" x1="7" x2="367" y1="689.4141" y2="689.4141"/><text fill="#000000" font-family="sans-serif" font-size="11" lengthAdjust="spacingAndGlyphs" textLength="288" x="12" y="703.6245">ClusteredXYBarRenderer (extends XYBarRenderer)</text><text fill="#000000" font-family="sans-serif" font-size="11" lengthAdjust="spacingAndGlyphs" textLength="278" x="12" y="716.4292">StackedXYBarRenderer (extends XYBarRenderer)</text><text fill="#000000" font-family="sans-serif" font-size="11" lengthAdjust="spacingAndGlyphs" textLength="327" x="12" y="729.2339">CyclicXYItemRenderer (extends StandardXYItemRenderer)</text><text fill="#000000" font-family="sans-serif" font-size="11" lengthAdjust="spacingAndGlyphs" textLength="338" x="12" y="742.0386">DefaultXYItemRenderer (extends XYLineAndShapeRenderer)</text><text fill="#000000" font-family="sans-serif" font-size="11" lengthAdjust="spacingAndGlyphs" textLength="311" x="12" y="754.8433">DeviationRenderer (extends XYLineAndShapeRenderer)</text><text fill="#000000" font-family="sans-serif" font-size="11" lengthAdjust="spacingAndGlyphs" textLength="302" x="12" y="767.6479">XYErrorRenderer (extends XYLineAndShapeRenderer)</text><text fill="#000000" font-family="sans-serif" font-size="11" lengthAdjust="spacingAndGlyphs" textLength="308" x="12" y="780.4526">XYSplineRenderer (extends XYLineAndShapeRenderer)</text><text fill="#000000" font-family="sans-serif" font-size="11" lengthAdjust="spacingAndGlyphs" textLength="290" x="12" y="793.2573">StackedXYAreaRenderer (extends XYAreaRenderer)</text><text fill="#000000" font-family="sans-serif" font-size="11" lengthAdjust="spacingAndGlyphs" textLength="304" x="12" y="806.062">StackedXYAreaRenderer2 (extends XYAreaRenderer2)</text><!--class InheritedCategoryItemRendererClassExtenders--><rect fill="#FEFECE" filter="url(#f2v4rberk659x)" height="222.4609" id="InheritedCategoryItemRendererClassExtenders" style="stroke: #A80036; stroke-width: 1.5;" width="389" x="403.5" y="601"/><ellipse cx="447.3" cy="617" fill="#ADD1B2" rx="11" ry="11" style="stroke: #A80036; stroke-width: 1.0;"/><path d="M449.6438,612.6719 L449.8156,612.75 C450.0344,612.4375 450.2375,612.3438 450.5344,612.3438 C450.8313,612.3438 451.1125,612.4844 451.2688,612.75 C451.3625,612.9063 451.3781,613.0313 451.3781,613.4688 L451.3781,614.8906 C451.3781,615.3125 451.3469,615.5 451.2375,615.6563 C451.0656,615.875 450.8,616.0156 450.5344,616.0156 C450.3156,616.0156 450.0813,615.9063 449.9406,615.7656 C449.8,615.6406 449.7688,615.5156 449.7063,615.1094 C449.6125,614.7031 449.4406,614.4844 448.9563,614.2031 C448.4875,613.9531 447.8781,613.7969 447.3,613.7969 C445.5656,613.7969 444.3156,615.1094 444.3156,616.8906 L444.3156,617.9844 C444.3156,619.6875 445.6125,620.7813 447.6594,620.7813 C448.425,620.7813 449.1125,620.6563 449.5344,620.3906 C449.7219,620.2969 449.7219,620.2969 450.175,619.8125 C450.3625,619.625 450.5656,619.5469 450.7844,619.5469 C451.2531,619.5469 451.6438,619.9375 451.6438,620.3906 C451.6438,620.7813 451.3156,621.2344 450.7375,621.6406 C449.9875,622.1875 448.8313,622.4844 447.6125,622.4844 C444.7219,622.4844 442.6125,620.5938 442.6125,618.0156 L442.6125,616.8906 C442.6125,614.1719 444.6125,612.0938 447.2375,612.0938 C448.1125,612.0938 448.7063,612.2344 449.6438,612.6719 Z "/><text fill="#000000" font-family="sans-serif" font-size="12" lengthAdjust="spacingAndGlyphs" textLength="293" x="467.7" y="621.1543">InheritedCategoryItemRendererClassExtenders</text><line style="stroke: #A80036; stroke-width: 1.5;" x1="404.5" x2="791.5" y1="633" y2="633"/><text fill="#000000" font-family="sans-serif" font-size="11" lengthAdjust="spacingAndGlyphs" textLength="350" x="409.5" y="647.2104">Of course, these classes can also have subclasses that also</text><text fill="#000000" font-family="sans-serif" font-size="11" lengthAdjust="spacingAndGlyphs" textLength="155" x="409.5" y="660.0151">fall in our problem domain.</text><text fill="#000000" font-family="sans-serif" font-size="11" lengthAdjust="spacingAndGlyphs" textLength="83" x="409.5" y="672.8198">These include:</text><line style="stroke: #A80036; stroke-width: 1.0; stroke-dasharray: 1.0,2.0;" x1="404.5" x2="791.5" y1="679.4141" y2="679.4141"/><text fill="#000000" font-family="sans-serif" font-size="11" lengthAdjust="spacingAndGlyphs" textLength="361" x="409.5" y="693.6245">DefaultCategoryItemRenderer (extends LineAndShapeRenderer)</text><text fill="#000000" font-family="sans-serif" font-size="11" lengthAdjust="spacingAndGlyphs" textLength="377" x="409.5" y="706.4292">StatisticalCategoryItemRenderer (extends LineAndShapeRenderer)</text><text fill="#000000" font-family="sans-serif" font-size="11" lengthAdjust="spacingAndGlyphs" textLength="247" x="409.5" y="719.2339">IntervalBarRenderer (extends BarRenderer)</text><text fill="#000000" font-family="sans-serif" font-size="11" lengthAdjust="spacingAndGlyphs" textLength="250" x="409.5" y="732.0386">StackedBarRenderer (extends BarRenderer)</text><text fill="#000000" font-family="sans-serif" font-size="11" lengthAdjust="spacingAndGlyphs" textLength="250" x="409.5" y="744.8433">LayeredBarRenderer (extends BarRenderer)</text><text fill="#000000" font-family="sans-serif" font-size="11" lengthAdjust="spacingAndGlyphs" textLength="261" x="409.5" y="757.6479">StatisticalBarRenderer (extends BarRenderer)</text><text fill="#000000" font-family="sans-serif" font-size="11" lengthAdjust="spacingAndGlyphs" textLength="254" x="409.5" y="770.4526">WaterfallBarRenderer (extends BarRenderer)</text><text fill="#000000" font-family="sans-serif" font-size="11" lengthAdjust="spacingAndGlyphs" textLength="262" x="409.5" y="783.2573">StackedAreaRenderer (extends AreaRenderer)</text><line style="stroke: #A80036; stroke-width: 1.0; stroke-dasharray: 1.0,2.0;" x1="404.5" x2="791.5" y1="789.8516" y2="789.8516"/><text fill="#000000" font-family="sans-serif" font-size="11" lengthAdjust="spacingAndGlyphs" textLength="344" x="409.5" y="804.062">GroupedStackedBarRenderer (extends StackedBarRenderer)</text><text fill="#000000" font-family="sans-serif" font-size="11" lengthAdjust="spacingAndGlyphs" textLength="265" x="409.5" y="816.8667">GhanttRenderer (extends IntervalBarRenderer)</text><!--class DefaultPolarItemRenderer--><rect fill="#FEFECE" filter="url(#f2v4rberk659x)" height="48" id="DefaultPolarItemRenderer" style="stroke: #A80036; stroke-width: 1.5;" width="194" x="923" y="116"/><ellipse cx="938" cy="132" fill="#ADD1B2" rx="11" ry="11" style="stroke: #A80036; stroke-width: 1.0;"/><path d="M940.3438,127.6719 L940.5156,127.75 C940.7344,127.4375 940.9375,127.3438 941.2344,127.3438 C941.5313,127.3438 941.8125,127.4844 941.9688,127.75 C942.0625,127.9063 942.0781,128.0313 942.0781,128.4688 L942.0781,129.8906 C942.0781,130.3125 942.0469,130.5 941.9375,130.6563 C941.7656,130.875 941.5,131.0156 941.2344,131.0156 C941.0156,131.0156 940.7813,130.9063 940.6406,130.7656 C940.5,130.6406 940.4688,130.5156 940.4063,130.1094 C940.3125,129.7031 940.1406,129.4844 939.6563,129.2031 C939.1875,128.9531 938.5781,128.7969 938,128.7969 C936.2656,128.7969 935.0156,130.1094 935.0156,131.8906 L935.0156,132.9844 C935.0156,134.6875 936.3125,135.7813 938.3594,135.7813 C939.125,135.7813 939.8125,135.6563 940.2344,135.3906 C940.4219,135.2969 940.4219,135.2969 940.875,134.8125 C941.0625,134.625 941.2656,134.5469 941.4844,134.5469 C941.9531,134.5469 942.3438,134.9375 942.3438,135.3906 C942.3438,135.7813 942.0156,136.2344 941.4375,136.6406 C940.6875,137.1875 939.5313,137.4844 938.3125,137.4844 C935.4219,137.4844 933.3125,135.5938 933.3125,133.0156 L933.3125,131.8906 C933.3125,129.1719 935.3125,127.0938 937.9375,127.0938 C938.8125,127.0938 939.4063,127.2344 940.3438,127.6719 Z "/><text fill="#000000" font-family="sans-serif" font-size="12" lengthAdjust="spacingAndGlyphs" textLength="162" x="952" y="136.1543">DefaultPolarItemRenderer</text><line style="stroke: #A80036; stroke-width: 1.5;" x1="924" x2="1116" y1="148" y2="148"/><line style="stroke: #A80036; stroke-width: 1.5;" x1="924" x2="1116" y1="156" y2="156"/><!--class WaferMapRenderer--><rect fill="#FEFECE" filter="url(#f2v4rberk659x)" height="48" id="WaferMapRenderer" style="stroke: #A80036; stroke-width: 1.5;" width="152" x="736" y="116"/><ellipse cx="751" cy="132" fill="#ADD1B2" rx="11" ry="11" style="stroke: #A80036; stroke-width: 1.0;"/><path d="M753.3438,127.6719 L753.5156,127.75 C753.7344,127.4375 753.9375,127.3438 754.2344,127.3438 C754.5313,127.3438 754.8125,127.4844 754.9688,127.75 C755.0625,127.9063 755.0781,128.0313 755.0781,128.4688 L755.0781,129.8906 C755.0781,130.3125 755.0469,130.5 754.9375,130.6563 C754.7656,130.875 754.5,131.0156 754.2344,131.0156 C754.0156,131.0156 753.7813,130.9063 753.6406,130.7656 C753.5,130.6406 753.4688,130.5156 753.4063,130.1094 C753.3125,129.7031 753.1406,129.4844 752.6563,129.2031 C752.1875,128.9531 751.5781,128.7969 751,128.7969 C749.2656,128.7969 748.0156,130.1094 748.0156,131.8906 L748.0156,132.9844 C748.0156,134.6875 749.3125,135.7813 751.3594,135.7813 C752.125,135.7813 752.8125,135.6563 753.2344,135.3906 C753.4219,135.2969 753.4219,135.2969 753.875,134.8125 C754.0625,134.625 754.2656,134.5469 754.4844,134.5469 C754.9531,134.5469 755.3438,134.9375 755.3438,135.3906 C755.3438,135.7813 755.0156,136.2344 754.4375,136.6406 C753.6875,137.1875 752.5313,137.4844 751.3125,137.4844 C748.4219,137.4844 746.3125,135.5938 746.3125,133.0156 L746.3125,131.8906 C746.3125,129.1719 748.3125,127.0938 750.9375,127.0938 C751.8125,127.0938 752.4063,127.2344 753.3438,127.6719 Z "/><text fill="#000000" font-family="sans-serif" font-size="12" lengthAdjust="spacingAndGlyphs" textLength="120" x="765" y="136.1543">WaferMapRenderer</text><line style="stroke: #A80036; stroke-width: 1.5;" x1="737" x2="887" y1="148" y2="148"/><line style="stroke: #A80036; stroke-width: 1.5;" x1="737" x2="887" y1="156" y2="156"/><!--class XYItemRenderer--><rect fill="#FEFECE" filter="url(#f2v4rberk659x)" height="48" id="XYItemRenderer" style="stroke: #A80036; stroke-width: 1.5;" width="133" x="195.5" y="8"/><ellipse cx="210.5" cy="24" fill="#B4A7E5" rx="11" ry="11" style="stroke: #A80036; stroke-width: 1.0;"/><path d="M211.4531,20.7813 L211.4531,27.2969 L213.1719,27.2969 C213.625,27.2969 213.7656,27.3281 213.9375,27.4531 C214.1719,27.625 214.2813,27.875 214.2813,28.1563 C214.2813,28.7188 213.9219,29 213.1719,29 L208.0313,29 C207.625,29 207.4219,28.9531 207.2656,28.8281 C207.0469,28.6719 206.9063,28.4063 206.9063,28.1563 C206.9063,27.8594 207.0625,27.5781 207.3125,27.4219 C207.4688,27.3125 207.5938,27.2969 208.0313,27.2969 L209.75,27.2969 L209.75,20.7813 L208.0313,20.7813 C207.6094,20.7813 207.4219,20.75 207.2656,20.6406 C207.0469,20.4688 206.9063,20.2188 206.9063,19.9375 C206.9063,19.6563 207.0625,19.3594 207.3125,19.2031 C207.4688,19.1094 207.5938,19.0938 208.0313,19.0938 L213.1719,19.0938 C213.625,19.0938 213.7656,19.125 213.9375,19.2344 C214.1719,19.4063 214.2813,19.6719 214.2813,19.9375 C214.2813,20.2344 214.1406,20.5156 213.875,20.6719 C213.75,20.75 213.5625,20.7813 213.1719,20.7813 Z "/><text fill="#000000" font-family="sans-serif" font-size="12" font-style="italic" lengthAdjust="spacingAndGlyphs" textLength="101" x="224.5" y="28.1543">XYItemRenderer</text><line style="stroke: #A80036; stroke-width: 1.5;" x1="196.5" x2="327.5" y1="40" y2="40"/><line style="stroke: #A80036; stroke-width: 1.5;" x1="196.5" x2="327.5" y1="48" y2="48"/><!--class CategoryItemRenderer--><rect fill="#FEFECE" filter="url(#f2v4rberk659x)" height="48" id="CategoryItemRenderer" style="stroke: #A80036; stroke-width: 1.5;" width="175" x="500.5" y="8"/><ellipse cx="515.5" cy="24" fill="#B4A7E5" rx="11" ry="11" style="stroke: #A80036; stroke-width: 1.0;"/><path d="M516.4531,20.7813 L516.4531,27.2969 L518.1719,27.2969 C518.625,27.2969 518.7656,27.3281 518.9375,27.4531 C519.1719,27.625 519.2813,27.875 519.2813,28.1563 C519.2813,28.7188 518.9219,29 518.1719,29 L513.0313,29 C512.625,29 512.4219,28.9531 512.2656,28.8281 C512.0469,28.6719 511.9063,28.4063 511.9063,28.1563 C511.9063,27.8594 512.0625,27.5781 512.3125,27.4219 C512.4688,27.3125 512.5938,27.2969 513.0313,27.2969 L514.75,27.2969 L514.75,20.7813 L513.0313,20.7813 C512.6094,20.7813 512.4219,20.75 512.2656,20.6406 C512.0469,20.4688 511.9063,20.2188 511.9063,19.9375 C511.9063,19.6563 512.0625,19.3594 512.3125,19.2031 C512.4688,19.1094 512.5938,19.0938 513.0313,19.0938 L518.1719,19.0938 C518.625,19.0938 518.7656,19.125 518.9375,19.2344 C519.1719,19.4063 519.2813,19.6719 519.2813,19.9375 C519.2813,20.2344 519.1406,20.5156 518.875,20.6719 C518.75,20.75 518.5625,20.7813 518.1719,20.7813 Z "/><text fill="#000000" font-family="sans-serif" font-size="12" font-style="italic" lengthAdjust="spacingAndGlyphs" textLength="143" x="529.5" y="28.1543">CategoryItemRenderer</text><line style="stroke: #A80036; stroke-width: 1.5;" x1="501.5" x2="674.5" y1="40" y2="40"/><line style="stroke: #A80036; stroke-width: 1.5;" x1="501.5" x2="674.5" y1="48" y2="48"/><!--class PolarItemRenderer--><rect fill="#FEFECE" filter="url(#f2v4rberk659x)" height="48" id="PolarItemRenderer" style="stroke: #A80036; stroke-width: 1.5;" width="149" x="945.5" y="8"/><ellipse cx="960.5" cy="24" fill="#B4A7E5" rx="11" ry="11" style="stroke: #A80036; stroke-width: 1.0;"/><path d="M961.4531,20.7813 L961.4531,27.2969 L963.1719,27.2969 C963.625,27.2969 963.7656,27.3281 963.9375,27.4531 C964.1719,27.625 964.2813,27.875 964.2813,28.1563 C964.2813,28.7188 963.9219,29 963.1719,29 L958.0313,29 C957.625,29 957.4219,28.9531 957.2656,28.8281 C957.0469,28.6719 956.9063,28.4063 956.9063,28.1563 C956.9063,27.8594 957.0625,27.5781 957.3125,27.4219 C957.4688,27.3125 957.5938,27.2969 958.0313,27.2969 L959.75,27.2969 L959.75,20.7813 L958.0313,20.7813 C957.6094,20.7813 957.4219,20.75 957.2656,20.6406 C957.0469,20.4688 956.9063,20.2188 956.9063,19.9375 C956.9063,19.6563 957.0625,19.3594 957.3125,19.2031 C957.4688,19.1094 957.5938,19.0938 958.0313,19.0938 L963.1719,19.0938 C963.625,19.0938 963.7656,19.125 963.9375,19.2344 C964.1719,19.4063 964.2813,19.6719 964.2813,19.9375 C964.2813,20.2344 964.1406,20.5156 963.875,20.6719 C963.75,20.75 963.5625,20.7813 963.1719,20.7813 Z "/><text fill="#000000" font-family="sans-serif" font-size="12" font-style="italic" lengthAdjust="spacingAndGlyphs" textLength="117" x="974.5" y="28.1543">PolarItemRenderer</text><line style="stroke: #A80036; stroke-width: 1.5;" x1="946.5" x2="1093.5" y1="40" y2="40"/><line style="stroke: #A80036; stroke-width: 1.5;" x1="946.5" x2="1093.5" y1="48" y2="48"/><!--link AbstractRenderer to AbstractXYItemRenderer--><path d="M705.647,53.96 C625.018,72.459 508.054,99.295 427.178,117.851 " fill="none" id="AbstractRenderer-AbstractXYItemRenderer" style="stroke: #A80036; stroke-width: 1.0;"/><polygon fill="none" points="704.26,47.096,725.319,49.446,707.391,60.742,704.26,47.096" style="stroke: #A80036; stroke-width: 1.0;"/><!--link AbstractRenderer to AbstractCategoryItemRenderer--><path d="M733.509,65.201 C701.287,81.543 662.883,101.021 633.622,115.862 " fill="none" id="AbstractRenderer-AbstractCategoryItemRenderer" style="stroke: #A80036; stroke-width: 1.0;"/><polygon fill="none" points="730.647,58.804,751.65,56,736.979,71.29,730.647,58.804" style="stroke: #A80036; stroke-width: 1.0;"/><!--link AbstractXYItemRenderer to InheritedXYItemRendererClass--><path d="M310.717,181.277 C303.171,193.792 294.351,208.422 284.974,223.974 " fill="none" id="AbstractXYItemRenderer-InheritedXYItemRendererClass" style="stroke: #A80036; stroke-width: 1.0;"/><polygon fill="none" points="304.775,177.574,321.097,164.06,316.765,184.802,304.775,177.574" style="stroke: #A80036; stroke-width: 1.0;"/><!--link AbstractCategoryItemRenderer to InheritedCategoryItemRendererClass--><path d="M589.074,184.06 C589.837,214.644 590.888,256.768 591.823,294.254 " fill="none" id="AbstractCategoryItemRenderer-InheritedCategoryItemRendererClass" style="stroke: #A80036; stroke-width: 1.0;"/><polygon fill="none" points="582.076,184.229,588.575,164.06,596.072,183.879,582.076,184.229" style="stroke: #A80036; stroke-width: 1.0;"/><!--link InheritedXYItemRendererClass to InheritedXYItemRendererClassExtenders--><path d="M188.373,561.06 C188.217,578.095 188.063,594.929 187.918,610.818 " fill="none" id="InheritedXYItemRendererClass-InheritedXYItemRendererClassExtenders" style="stroke: #A80036; stroke-width: 1.0;"/><polygon fill="none" points="181.374,560.95,188.557,541.015,195.374,561.078,181.374,560.95" style="stroke: #A80036; stroke-width: 1.0;"/><!--link InheritedCategoryItemRendererClass to InheritedCategoryItemRendererClassExtenders--><path d="M595.313,491.037 C595.743,526.223 596.221,565.35 596.653,600.734 " fill="none" id="InheritedCategoryItemRendererClass-InheritedCategoryItemRendererClassExtenders" style="stroke: #A80036; stroke-width: 1.0;"/><polygon fill="none" points="588.312,490.918,595.067,470.834,602.311,490.747,588.312,490.918" style="stroke: #A80036; stroke-width: 1.0;"/><!--link InheritedCategoryItemRendererClassExtenders to InheritedCategoryItemRendererClassExtenders--><path d="M792.636,660.456 C813.837,670.315 827.5,687.496 827.5,712 C827.5,729.0379 820.895,742.5356 809.743,752.4933 " fill="none" id="InheritedCategoryItemRendererClassExtenders-InheritedCategoryItemRendererClassExtenders" style="stroke: #A80036; stroke-width: 1.0;"/><polygon fill="none" points="813.234,758.5714,792.636,763.5443,805.637,746.8118,813.234,758.5714" style="stroke: #A80036; stroke-width: 1.0;"/><!--link AbstractRenderer to DefaultPolarItemRenderer--><path d="M863.782,64.744 C898.357,81.179 939.809,100.882 971.322,115.862 " fill="none" id="AbstractRenderer-DefaultPolarItemRenderer" style="stroke: #A80036; stroke-width: 1.0;"/><polygon fill="none" points="860.446,70.909,845.388,56,866.456,58.264,860.446,70.909" style="stroke: #A80036; stroke-width: 1.0;"/><!--link AbstractRenderer to WaferMapRenderer--><path d="M803.088,76.024 C805.006,89.579 807.053,104.038 808.7,115.678 " fill="none" id="AbstractRenderer-WaferMapRenderer" style="stroke: #A80036; stroke-width: 1.0;"/><polygon fill="none" points="796.126,76.784,800.255,56,809.988,74.822,796.126,76.784" style="stroke: #A80036; stroke-width: 1.0;"/><!--link XYItemRenderer to AbstractXYItemRenderer--><path d="M289.31,72.656 C299.292,87.15 310.254,103.068 318.939,115.678 " fill="none" id="XYItemRenderer-AbstractXYItemRenderer" style="stroke: #A80036; stroke-width: 1.0; stroke-dasharray: 7.0,7.0;"/><polygon fill="none" points="283.419,76.443,277.84,56,294.949,68.502,283.419,76.443" style="stroke: #A80036; stroke-width: 1.0;"/><!--link XYItemRenderer to InheritedXYItemRendererClass--><path d="M240.688,74.501 C234.786,87.498 228.929,102.086 225,116 C215.303,150.34 208.275,187.954 203.187,223.791 " fill="none" id="XYItemRenderer-InheritedXYItemRendererClass" style="stroke: #A80036; stroke-width: 1.0; stroke-dasharray: 7.0,7.0;"/><polygon fill="none" points="234.465,71.289,249.435,56.292,247.085,77.351,234.465,71.289" style="stroke: #A80036; stroke-width: 1.0;"/><!--link CategoryItemRenderer to AbstractCategoryItemRenderer--><path d="M588,76.024 C588,89.579 588,104.038 588,115.678 " fill="none" id="CategoryItemRenderer-AbstractCategoryItemRenderer" style="stroke: #A80036; stroke-width: 1.0; stroke-dasharray: 7.0,7.0;"/><polygon fill="none" points="581,76,588,56,595,76,581,76" style="stroke: #A80036; stroke-width: 1.0;"/><!--link PolarItemRenderer to DefaultPolarItemRenderer--><path d="M1020,76.024 C1020,89.579 1020,104.038 1020,115.678 " fill="none" id="PolarItemRenderer-DefaultPolarItemRenderer" style="stroke: #A80036; stroke-width: 1.0; stroke-dasharray: 7.0,7.0;"/><polygon fill="none" points="1013,76,1020,56,1027,76,1013,76" style="stroke: #A80036; stroke-width: 1.0;"/><!--
@startuml
AbstractRenderer <|- - AbstractXYItemRenderer
AbstractRenderer <|- - AbstractCategoryItemRenderer
AbstractXYItemRenderer <|- - InheritedXYItemRendererClass
AbstractCategoryItemRenderer <|- - InheritedCategoryItemRendererClass
InheritedXYItemRendererClass <|- - InheritedXYItemRendererClassExtenders
InheritedCategoryItemRendererClass <|- - InheritedCategoryItemRendererClassExtenders
InheritedCategoryItemRendererClassExtenders - -|> InheritedCategoryItemRendererClassExtenders
AbstractRenderer <|- - DefaultPolarItemRenderer
AbstractRenderer <|- - WaferMapRenderer

class InheritedXYItemRendererClass {
    The list of classes that actually inherit and fall within
    our problem domain are listed below:
    ..
    CandlestickRenderer
    HighLowRenderer
    SamplingXYLineRenderer
    StandardXYItemRenderer
    VectorRenderer
    WindItemRenderer
    XYAreaRenderer
    XYAreaRenderer2
    XYBarRenderer
    XYBlockRenderer
    XYBoxAndWhiskersRenderer
    XYBubbleRenderer
    XYLineAndShapeRenderer
    XYDifferenceRenderer
    XYDotRenderer
    XYShapeRenderer
    XYStepAreaRenderer
    XYStepRenderer
    YIntervalRenderer
}

class InheritedXYItemRendererClassExtenders {
    Of course, these classes can also have subclasses that also
    fall in our problem domain.
    These include:
    ..
    ClusteredXYBarRenderer (extends XYBarRenderer)
    StackedXYBarRenderer (extends XYBarRenderer)
    CyclicXYItemRenderer (extends StandardXYItemRenderer)
    DefaultXYItemRenderer (extends XYLineAndShapeRenderer)
    DeviationRenderer (extends XYLineAndShapeRenderer)
    XYErrorRenderer (extends XYLineAndShapeRenderer)
    XYSplineRenderer (extends XYLineAndShapeRenderer)
    StackedXYAreaRenderer (extends XYAreaRenderer)
    StackedXYAreaRenderer2 (extends XYAreaRenderer2)
}

class InheritedCategoryItemRendererClass {
    The list of classes that actually inherit and fall within
    our problem domain are listed below:
    ..
    AreaRenderer
    BarRenderer
    BoxAndWhiskerRenderer
    CategoryStepRenderer
    LevelRenderer
    LineAndShapeRenderer
    MinMaxCategoryRenderer
    ScatterRenderer
}

class InheritedCategoryItemRendererClassExtenders {
    Of course, these classes can also have subclasses that also
    fall in our problem domain.
    These include:
    ..
    DefaultCategoryItemRenderer (extends LineAndShapeRenderer)
    StatisticalCategoryItemRenderer (extends LineAndShapeRenderer)
    IntervalBarRenderer (extends BarRenderer)
    StackedBarRenderer (extends BarRenderer)
    LayeredBarRenderer (extends BarRenderer)
    StatisticalBarRenderer (extends BarRenderer)
    WaterfallBarRenderer (extends BarRenderer)
    StackedAreaRenderer (extends AreaRenderer)
    ..
    GroupedStackedBarRenderer (extends StackedBarRenderer)
    GhanttRenderer (extends IntervalBarRenderer)
}

interface XYItemRenderer
interface CategoryItemRenderer
interface PolarItemRenderer

XYItemRenderer <|.. AbstractXYItemRenderer
XYItemRenderer <|.. InheritedXYItemRendererClass
CategoryItemRenderer <|.. AbstractCategoryItemRenderer
PolarItemRenderer <|.. DefaultPolarItemRenderer
@enduml

PlantUML version 1.2019.07beta1(Unknown compile time)
(GPL source distribution)
Java Runtime: Java(TM) SE Runtime Environment
JVM: Java HotSpot(TM) 64-Bit Server VM
Java Version: 1.7.0_25-b15
Operating System: Linux
Default Encoding: UTF-8
Language: en
Country: US
--></g></svg>