<?xml version="1.0" encoding="UTF-8" standalone="no"?><svg xmlns="http://www.w3.org/2000/svg" xmlns:xlink="http://www.w3.org/1999/xlink" contentScriptType="application/ecmascript" contentStyleType="text/css" height="273px" preserveAspectRatio="none" style="width:441px;height:273px;" version="1.1" viewBox="0 0 441 273" width="441px" zoomAndPan="magnify"><defs><filter height="300%" id="fw1ixyp5r1ff8" width="300%" x="-1" y="-1"><feGaussianBlur result="blurOut" stdDeviation="2.0"/><feColorMatrix in="blurOut" result="blurOut2" type="matrix" values="0 0 0 0 0 0 0 0 0 0 0 0 0 0 0 0 0 0 .4 0"/><feOffset dx="4.0" dy="4.0" in="blurOut2" result="blurOut3"/><feBlend in="SourceGraphic" in2="blurOut3" mode="normal"/></filter></defs><g><ellipse cx="16" cy="28" fill="#000000" filter="url(#fw1ixyp5r1ff8)" rx="10" ry="10" style="stroke: none; stroke-width: 1.0;"/><rect fill="#FEFECE" filter="url(#fw1ixyp5r1ff8)" height="40" rx="12.5" ry="12.5" style="stroke: #A80036; stroke-width: 1.5;" width="97" x="212.5" y="8"/><text fill="#000000" font-family="sans-serif" font-size="14" lengthAdjust="spacingAndGlyphs" textLength="87" x="217.5" y="32.8467">ChartFactory</text><rect fill="#FEFECE" filter="url(#fw1ixyp5r1ff8)" height="40" rx="12.5" ry="12.5" style="stroke: #A80036; stroke-width: 1.5;" width="50" x="236" y="125"/><text fill="#000000" font-family="sans-serif" font-size="14" lengthAdjust="spacingAndGlyphs" textLength="26" x="248" y="149.8467">Plot</text><rect fill="#FEFECE" filter="url(#fw1ixyp5r1ff8)" height="40" rx="12.5" ry="12.5" style="stroke: #A80036; stroke-width: 1.5;" width="75" x="72.5" y="125"/><text fill="#000000" font-family="sans-serif" font-size="14" lengthAdjust="spacingAndGlyphs" textLength="65" x="77.5" y="149.8467">Renderer</text><ellipse cx="193" cy="252" fill="none" filter="url(#fw1ixyp5r1ff8)" rx="10" ry="10" style="stroke: #000000; stroke-width: 1.0;"/><ellipse cx="193.5" cy="252.5" fill="#000000" rx="6" ry="6" style="stroke: none; stroke-width: 1.0;"/><!--link *start to ChartFactory--><path d="M26.2154,28 C56.5442,28 147.646,28 207.043,28 " fill="none" id="*start-ChartFactory" style="stroke: #A80036; stroke-width: 1.0;"/><polygon fill="#A80036" points="212.332,28,203.332,24,207.332,28,203.332,32,212.332,28" style="stroke: #A80036; stroke-width: 1.0;"/><text fill="#000000" font-family="sans-serif" font-size="13" lengthAdjust="spacingAndGlyphs" textLength="150" x="44.25" y="21.0669">some sequence of calls</text><!--link ChartFactory to Plot--><path d="M261,48.248 C261,67.818 261,98.207 261,119.487 " fill="none" id="ChartFactory-Plot" style="stroke: #A80036; stroke-width: 1.0;"/><polygon fill="#A80036" points="261,124.689,265,115.689,261,119.689,257,115.689,261,124.689" style="stroke: #A80036; stroke-width: 1.0;"/><text fill="#000000" font-family="sans-serif" font-size="13" lengthAdjust="spacingAndGlyphs" textLength="167" x="262" y="91.0669">create some Plot instance</text><!--link Plot to Plot--><path d="M286.278,135.187 C303.773,132.213 321,135.484 321,145 C321,153.549 307.095,157.058 291.582,155.526 " fill="none" id="Plot-Plot" style="stroke: #A80036; stroke-width: 1.0;"/><polygon fill="#A80036" points="286.278,154.813,294.6651,159.9759,291.2335,155.4789,295.7305,152.0472,286.278,154.813" style="stroke: #A80036; stroke-width: 1.0;"/><text fill="#000000" font-family="sans-serif" font-size="13" lengthAdjust="spacingAndGlyphs" textLength="57" x="327" y="149.5669">add data</text><!--link Renderer to Plot--><path d="M152.957,145 C179.644,145 213.04,145 235.584,145 " fill="none" id="Renderer-Plot" style="stroke: #A80036; stroke-width: 1.0;"/><polygon fill="#A80036" points="147.714,145,156.714,149,152.714,145,156.714,141,147.714,145" style="stroke: #A80036; stroke-width: 1.0;"/><text fill="#000000" font-family="sans-serif" font-size="13" lengthAdjust="spacingAndGlyphs" textLength="52" x="165.75" y="138.0669">render()</text><!--link Plot to *end--><path d="M248.528,165.2586 C234.672,186.6536 212.713,220.5606 200.992,238.6591 " fill="none" id="Plot-*end" style="stroke: #A80036; stroke-width: 1.0;"/><polygon fill="#A80036" points="198.244,242.9026,206.4935,237.5225,200.9618,238.7058,199.7786,233.174,198.244,242.9026" style="stroke: #A80036; stroke-width: 1.0;"/><text fill="#000000" font-family="sans-serif" font-size="13" lengthAdjust="spacingAndGlyphs" textLength="40" x="230" y="208.0669">draw()</text><!--link Renderer to *end--><path d="M125.223,165.2586 C142.308,186.8719 169.486,221.2539 183.679,239.2082 " fill="none" id="Renderer-*end" style="stroke: #A80036; stroke-width: 1.0;"/><polygon fill="#A80036" points="186.993,243.4011,184.5487,233.8604,183.8919,239.479,178.2733,238.8222,186.993,243.4011" style="stroke: #A80036; stroke-width: 1.0;"/><text fill="#000000" font-family="sans-serif" font-size="13" lengthAdjust="spacingAndGlyphs" textLength="40" x="162" y="208.0669">draw()</text><!--
@startuml
hide empty description
[*] -r-> ChartFactory : some sequence of calls
ChartFactory -d-> Plot : create some Plot instance
Plot - -> Plot : add data
Plot -l-> Renderer : render()
Plot - -> [*] : draw()
Renderer - -> [*] : draw()
@enduml

PlantUML version 1.2019.07beta1(Unknown compile time)
(GPL source distribution)
Java Runtime: Java(TM) SE Runtime Environment
JVM: Java HotSpot(TM) 64-Bit Server VM
Java Version: 1.7.0_25-b15
Operating System: Linux
Default Encoding: UTF-8
Language: en
Country: US
--></g></svg>