<?xml version="1.0" encoding="UTF-8" standalone="no"?><svg xmlns="http://www.w3.org/2000/svg" xmlns:xlink="http://www.w3.org/1999/xlink" contentScriptType="application/ecmascript" contentStyleType="text/css" height="210px" preserveAspectRatio="none" style="width:994px;height:210px;" version="1.1" viewBox="0 0 994 210" width="994px" zoomAndPan="magnify"><defs/><g><text fill="#000000" font-family="Serif" font-size="10" lengthAdjust="spacingAndGlyphs" textLength="6" x="5" y="9.2822">1</text><line style="stroke: #C0C0C0; stroke-width: 1.0;" x1="0" x2="0" y1="0" y2="208"/><text fill="#000000" font-family="Serif" font-size="10" lengthAdjust="spacingAndGlyphs" textLength="6" x="21" y="9.2822">2</text><line style="stroke: #C0C0C0; stroke-width: 1.0;" x1="16" x2="16" y1="0" y2="208"/><text fill="#000000" font-family="Serif" font-size="10" lengthAdjust="spacingAndGlyphs" textLength="6" x="37" y="9.2822">3</text><line style="stroke: #C0C0C0; stroke-width: 1.0;" x1="32" x2="32" y1="0" y2="208"/><text fill="#000000" font-family="Serif" font-size="10" lengthAdjust="spacingAndGlyphs" textLength="6" x="53" y="9.2822">4</text><line style="stroke: #C0C0C0; stroke-width: 1.0;" x1="48" x2="48" y1="0" y2="208"/><text fill="#000000" font-family="Serif" font-size="10" lengthAdjust="spacingAndGlyphs" textLength="6" x="69" y="9.2822">5</text><line style="stroke: #C0C0C0; stroke-width: 1.0;" x1="64" x2="64" y1="0" y2="208"/><text fill="#000000" font-family="Serif" font-size="10" lengthAdjust="spacingAndGlyphs" textLength="6" x="85" y="9.2822">6</text><line style="stroke: #C0C0C0; stroke-width: 1.0;" x1="80" x2="80" y1="0" y2="208"/><text fill="#000000" font-family="Serif" font-size="10" lengthAdjust="spacingAndGlyphs" textLength="6" x="101" y="9.2822">7</text><line style="stroke: #C0C0C0; stroke-width: 1.0;" x1="96" x2="96" y1="0" y2="208"/><text fill="#000000" font-family="Serif" font-size="10" lengthAdjust="spacingAndGlyphs" textLength="6" x="117" y="9.2822">8</text><line style="stroke: #C0C0C0; stroke-width: 1.0;" x1="112" x2="112" y1="0" y2="208"/><text fill="#000000" font-family="Serif" font-size="10" lengthAdjust="spacingAndGlyphs" textLength="6" x="133" y="9.2822">9</text><line style="stroke: #C0C0C0; stroke-width: 1.0;" x1="128" x2="128" y1="0" y2="208"/><text fill="#000000" font-family="Serif" font-size="10" lengthAdjust="spacingAndGlyphs" textLength="12" x="146" y="9.2822">10</text><line style="stroke: #C0C0C0; stroke-width: 1.0;" x1="144" x2="144" y1="0" y2="208"/><text fill="#000000" font-family="Serif" font-size="10" lengthAdjust="spacingAndGlyphs" textLength="12" x="162" y="9.2822">11</text><line style="stroke: #C0C0C0; stroke-width: 1.0;" x1="160" x2="160" y1="0" y2="208"/><text fill="#000000" font-family="Serif" font-size="10" lengthAdjust="spacingAndGlyphs" textLength="12" x="178" y="9.2822">12</text><line style="stroke: #C0C0C0; stroke-width: 1.0;" x1="176" x2="176" y1="0" y2="208"/><text fill="#000000" font-family="Serif" font-size="10" lengthAdjust="spacingAndGlyphs" textLength="12" x="194" y="9.2822">13</text><line style="stroke: #C0C0C0; stroke-width: 1.0;" x1="192" x2="192" y1="0" y2="208"/><text fill="#000000" font-family="Serif" font-size="10" lengthAdjust="spacingAndGlyphs" textLength="12" x="210" y="9.2822">14</text><line style="stroke: #C0C0C0; stroke-width: 1.0;" x1="208" x2="208" y1="0" y2="208"/><text fill="#000000" font-family="Serif" font-size="10" lengthAdjust="spacingAndGlyphs" textLength="12" x="226" y="9.2822">15</text><line style="stroke: #C0C0C0; stroke-width: 1.0;" x1="224" x2="224" y1="0" y2="208"/><text fill="#000000" font-family="Serif" font-size="10" lengthAdjust="spacingAndGlyphs" textLength="12" x="242" y="9.2822">16</text><line style="stroke: #C0C0C0; stroke-width: 1.0;" x1="240" x2="240" y1="0" y2="208"/><text fill="#000000" font-family="Serif" font-size="10" lengthAdjust="spacingAndGlyphs" textLength="12" x="258" y="9.2822">17</text><line style="stroke: #C0C0C0; stroke-width: 1.0;" x1="256" x2="256" y1="0" y2="208"/><text fill="#000000" font-family="Serif" font-size="10" lengthAdjust="spacingAndGlyphs" textLength="12" x="274" y="9.2822">18</text><line style="stroke: #C0C0C0; stroke-width: 1.0;" x1="272" x2="272" y1="0" y2="208"/><text fill="#000000" font-family="Serif" font-size="10" lengthAdjust="spacingAndGlyphs" textLength="12" x="290" y="9.2822">19</text><line style="stroke: #C0C0C0; stroke-width: 1.0;" x1="288" x2="288" y1="0" y2="208"/><text fill="#000000" font-family="Serif" font-size="10" lengthAdjust="spacingAndGlyphs" textLength="12" x="306" y="9.2822">20</text><line style="stroke: #C0C0C0; stroke-width: 1.0;" x1="304" x2="304" y1="0" y2="208"/><text fill="#000000" font-family="Serif" font-size="10" lengthAdjust="spacingAndGlyphs" textLength="12" x="322" y="9.2822">21</text><line style="stroke: #C0C0C0; stroke-width: 1.0;" x1="320" x2="320" y1="0" y2="208"/><text fill="#000000" font-family="Serif" font-size="10" lengthAdjust="spacingAndGlyphs" textLength="12" x="338" y="9.2822">22</text><line style="stroke: #C0C0C0; stroke-width: 1.0;" x1="336" x2="336" y1="0" y2="208"/><text fill="#000000" font-family="Serif" font-size="10" lengthAdjust="spacingAndGlyphs" textLength="12" x="354" y="9.2822">23</text><line style="stroke: #C0C0C0; stroke-width: 1.0;" x1="352" x2="352" y1="0" y2="208"/><text fill="#000000" font-family="Serif" font-size="10" lengthAdjust="spacingAndGlyphs" textLength="12" x="370" y="9.2822">24</text><line style="stroke: #C0C0C0; stroke-width: 1.0;" x1="368" x2="368" y1="0" y2="208"/><text fill="#000000" font-family="Serif" font-size="10" lengthAdjust="spacingAndGlyphs" textLength="12" x="386" y="9.2822">25</text><line style="stroke: #C0C0C0; stroke-width: 1.0;" x1="384" x2="384" y1="0" y2="208"/><text fill="#000000" font-family="Serif" font-size="10" lengthAdjust="spacingAndGlyphs" textLength="12" x="402" y="9.2822">26</text><line style="stroke: #C0C0C0; stroke-width: 1.0;" x1="400" x2="400" y1="0" y2="208"/><text fill="#000000" font-family="Serif" font-size="10" lengthAdjust="spacingAndGlyphs" textLength="12" x="418" y="9.2822">27</text><line style="stroke: #C0C0C0; stroke-width: 1.0;" x1="416" x2="416" y1="0" y2="208"/><text fill="#000000" font-family="Serif" font-size="10" lengthAdjust="spacingAndGlyphs" textLength="12" x="434" y="9.2822">28</text><line style="stroke: #C0C0C0; stroke-width: 1.0;" x1="432" x2="432" y1="0" y2="208"/><text fill="#000000" font-family="Serif" font-size="10" lengthAdjust="spacingAndGlyphs" textLength="12" x="450" y="9.2822">29</text><line style="stroke: #C0C0C0; stroke-width: 1.0;" x1="448" x2="448" y1="0" y2="208"/><text fill="#000000" font-family="Serif" font-size="10" lengthAdjust="spacingAndGlyphs" textLength="12" x="466" y="9.2822">30</text><line style="stroke: #C0C0C0; stroke-width: 1.0;" x1="464" x2="464" y1="0" y2="208"/><text fill="#000000" font-family="Serif" font-size="10" lengthAdjust="spacingAndGlyphs" textLength="12" x="482" y="9.2822">31</text><line style="stroke: #C0C0C0; stroke-width: 1.0;" x1="480" x2="480" y1="0" y2="208"/><text fill="#000000" font-family="Serif" font-size="10" lengthAdjust="spacingAndGlyphs" textLength="12" x="498" y="9.2822">32</text><line style="stroke: #C0C0C0; stroke-width: 1.0;" x1="496" x2="496" y1="0" y2="208"/><text fill="#000000" font-family="Serif" font-size="10" lengthAdjust="spacingAndGlyphs" textLength="12" x="514" y="9.2822">33</text><line style="stroke: #C0C0C0; stroke-width: 1.0;" x1="512" x2="512" y1="0" y2="208"/><text fill="#000000" font-family="Serif" font-size="10" lengthAdjust="spacingAndGlyphs" textLength="12" x="530" y="9.2822">34</text><line style="stroke: #C0C0C0; stroke-width: 1.0;" x1="528" x2="528" y1="0" y2="208"/><text fill="#000000" font-family="Serif" font-size="10" lengthAdjust="spacingAndGlyphs" textLength="12" x="546" y="9.2822">35</text><line style="stroke: #C0C0C0; stroke-width: 1.0;" x1="544" x2="544" y1="0" y2="208"/><text fill="#000000" font-family="Serif" font-size="10" lengthAdjust="spacingAndGlyphs" textLength="12" x="562" y="9.2822">36</text><line style="stroke: #C0C0C0; stroke-width: 1.0;" x1="560" x2="560" y1="0" y2="208"/><text fill="#000000" font-family="Serif" font-size="10" lengthAdjust="spacingAndGlyphs" textLength="12" x="578" y="9.2822">37</text><line style="stroke: #C0C0C0; stroke-width: 1.0;" x1="576" x2="576" y1="0" y2="208"/><text fill="#000000" font-family="Serif" font-size="10" lengthAdjust="spacingAndGlyphs" textLength="12" x="594" y="9.2822">38</text><line style="stroke: #C0C0C0; stroke-width: 1.0;" x1="592" x2="592" y1="0" y2="208"/><text fill="#000000" font-family="Serif" font-size="10" lengthAdjust="spacingAndGlyphs" textLength="12" x="610" y="9.2822">39</text><line style="stroke: #C0C0C0; stroke-width: 1.0;" x1="608" x2="608" y1="0" y2="208"/><text fill="#000000" font-family="Serif" font-size="10" lengthAdjust="spacingAndGlyphs" textLength="12" x="626" y="9.2822">40</text><line style="stroke: #C0C0C0; stroke-width: 1.0;" x1="624" x2="624" y1="0" y2="208"/><text fill="#000000" font-family="Serif" font-size="10" lengthAdjust="spacingAndGlyphs" textLength="12" x="642" y="9.2822">41</text><line style="stroke: #C0C0C0; stroke-width: 1.0;" x1="640" x2="640" y1="0" y2="208"/><text fill="#000000" font-family="Serif" font-size="10" lengthAdjust="spacingAndGlyphs" textLength="12" x="658" y="9.2822">42</text><line style="stroke: #C0C0C0; stroke-width: 1.0;" x1="656" x2="656" y1="0" y2="208"/><text fill="#000000" font-family="Serif" font-size="10" lengthAdjust="spacingAndGlyphs" textLength="12" x="674" y="9.2822">43</text><line style="stroke: #C0C0C0; stroke-width: 1.0;" x1="672" x2="672" y1="0" y2="208"/><text fill="#000000" font-family="Serif" font-size="10" lengthAdjust="spacingAndGlyphs" textLength="12" x="690" y="9.2822">44</text><line style="stroke: #C0C0C0; stroke-width: 1.0;" x1="688" x2="688" y1="0" y2="208"/><text fill="#000000" font-family="Serif" font-size="10" lengthAdjust="spacingAndGlyphs" textLength="12" x="706" y="9.2822">45</text><line style="stroke: #C0C0C0; stroke-width: 1.0;" x1="704" x2="704" y1="0" y2="208"/><text fill="#000000" font-family="Serif" font-size="10" lengthAdjust="spacingAndGlyphs" textLength="12" x="722" y="9.2822">46</text><line style="stroke: #C0C0C0; stroke-width: 1.0;" x1="720" x2="720" y1="0" y2="208"/><text fill="#000000" font-family="Serif" font-size="10" lengthAdjust="spacingAndGlyphs" textLength="12" x="738" y="9.2822">47</text><line style="stroke: #C0C0C0; stroke-width: 1.0;" x1="736" x2="736" y1="0" y2="208"/><text fill="#000000" font-family="Serif" font-size="10" lengthAdjust="spacingAndGlyphs" textLength="12" x="754" y="9.2822">48</text><line style="stroke: #C0C0C0; stroke-width: 1.0;" x1="752" x2="752" y1="0" y2="208"/><text fill="#000000" font-family="Serif" font-size="10" lengthAdjust="spacingAndGlyphs" textLength="12" x="770" y="9.2822">49</text><line style="stroke: #C0C0C0; stroke-width: 1.0;" x1="768" x2="768" y1="0" y2="208"/><text fill="#000000" font-family="Serif" font-size="10" lengthAdjust="spacingAndGlyphs" textLength="12" x="786" y="9.2822">50</text><line style="stroke: #C0C0C0; stroke-width: 1.0;" x1="784" x2="784" y1="0" y2="208"/><text fill="#000000" font-family="Serif" font-size="10" lengthAdjust="spacingAndGlyphs" textLength="12" x="802" y="9.2822">51</text><line style="stroke: #C0C0C0; stroke-width: 1.0;" x1="800" x2="800" y1="0" y2="208"/><text fill="#000000" font-family="Serif" font-size="10" lengthAdjust="spacingAndGlyphs" textLength="12" x="818" y="9.2822">52</text><line style="stroke: #C0C0C0; stroke-width: 1.0;" x1="816" x2="816" y1="0" y2="208"/><text fill="#000000" font-family="Serif" font-size="10" lengthAdjust="spacingAndGlyphs" textLength="12" x="834" y="9.2822">53</text><line style="stroke: #C0C0C0; stroke-width: 1.0;" x1="832" x2="832" y1="0" y2="208"/><text fill="#000000" font-family="Serif" font-size="10" lengthAdjust="spacingAndGlyphs" textLength="12" x="850" y="9.2822">54</text><line style="stroke: #C0C0C0; stroke-width: 1.0;" x1="848" x2="848" y1="0" y2="208"/><text fill="#000000" font-family="Serif" font-size="10" lengthAdjust="spacingAndGlyphs" textLength="12" x="866" y="9.2822">55</text><line style="stroke: #C0C0C0; stroke-width: 1.0;" x1="864" x2="864" y1="0" y2="208"/><text fill="#000000" font-family="Serif" font-size="10" lengthAdjust="spacingAndGlyphs" textLength="12" x="882" y="9.2822">56</text><line style="stroke: #C0C0C0; stroke-width: 1.0;" x1="880" x2="880" y1="0" y2="208"/><text fill="#000000" font-family="Serif" font-size="10" lengthAdjust="spacingAndGlyphs" textLength="12" x="898" y="9.2822">57</text><line style="stroke: #C0C0C0; stroke-width: 1.0;" x1="896" x2="896" y1="0" y2="208"/><text fill="#000000" font-family="Serif" font-size="10" lengthAdjust="spacingAndGlyphs" textLength="12" x="914" y="9.2822">58</text><line style="stroke: #C0C0C0; stroke-width: 1.0;" x1="912" x2="912" y1="0" y2="208"/><text fill="#000000" font-family="Serif" font-size="10" lengthAdjust="spacingAndGlyphs" textLength="12" x="930" y="9.2822">59</text><line style="stroke: #C0C0C0; stroke-width: 1.0;" x1="928" x2="928" y1="0" y2="208"/><text fill="#000000" font-family="Serif" font-size="10" lengthAdjust="spacingAndGlyphs" textLength="12" x="946" y="9.2822">60</text><line style="stroke: #C0C0C0; stroke-width: 1.0;" x1="944" x2="944" y1="0" y2="208"/><text fill="#000000" font-family="Serif" font-size="10" lengthAdjust="spacingAndGlyphs" textLength="12" x="962" y="9.2822">61</text><line style="stroke: #C0C0C0; stroke-width: 1.0;" x1="960" x2="960" y1="0" y2="208"/><text fill="#000000" font-family="Serif" font-size="10" lengthAdjust="spacingAndGlyphs" textLength="12" x="978" y="9.2822">62</text><line style="stroke: #C0C0C0; stroke-width: 1.0;" x1="976" x2="976" y1="0" y2="208"/><line style="stroke: #C0C0C0; stroke-width: 1.0;" x1="992" x2="992" y1="0" y2="208"/><line style="stroke: #C0C0C0; stroke-width: 1.0;" x1="0" x2="992" y1="0" y2="0"/><line style="stroke: #C0C0C0; stroke-width: 1.0;" x1="0" x2="992" y1="13" y2="13"/><rect fill="#ADFF2F" height="12" rx="4" ry="4" style="stroke: #0000FF; stroke-width: 1.0;" width="156" x="2" y="18"/><text fill="#000000" font-family="Serif" font-size="11" lengthAdjust="spacingAndGlyphs" textLength="30" x="16" y="26.8081">Start</text><rect fill="#ADFF2F" height="12" rx="4" ry="4" style="stroke: #0000FF; stroke-width: 1.0;" width="44" x="162" y="34"/><text fill="#000000" font-family="Serif" font-size="11" lengthAdjust="spacingAndGlyphs" textLength="84" x="176" y="42.8081">Repo Mining 1</text><rect fill="#ADFF2F" height="12" rx="4" ry="4" style="stroke: #0000FF; stroke-width: 1.0;" width="204" x="210" y="50"/><text fill="#000000" font-family="Serif" font-size="11" lengthAdjust="spacingAndGlyphs" textLength="105" x="224" y="58.8081">Repo Visualisation</text><rect fill="#ADFF2F" height="12" rx="4" ry="4" style="stroke: #0000FF; stroke-width: 1.0;" width="12" x="210" y="66"/><text fill="#000000" font-family="Serif" font-size="11" lengthAdjust="spacingAndGlyphs" textLength="94" x="224" y="74.8081">Code Coverage 1</text><rect fill="#ADFF2F" height="12" rx="4" ry="4" style="stroke: #0000FF; stroke-width: 1.0;" width="492" x="162" y="82"/><text fill="#000000" font-family="Serif" font-size="11" lengthAdjust="spacingAndGlyphs" textLength="78" x="176" y="90.8081">Code Analysis</text><rect fill="#ADFF2F" height="12" rx="4" ry="4" style="stroke: #0000FF; stroke-width: 1.0;" width="332" x="658" y="98"/><text fill="#000000" font-family="Serif" font-size="11" lengthAdjust="spacingAndGlyphs" textLength="94" x="672" y="106.8081">Code Coverage 2</text><rect fill="#ADFF2F" height="12" rx="4" ry="4" style="stroke: #0000FF; stroke-width: 1.0;" width="332" x="658" y="114"/><text fill="#000000" font-family="Serif" font-size="11" lengthAdjust="spacingAndGlyphs" textLength="84" x="672" y="122.8081">Repo Mining 2</text><rect fill="#ADFF2F" height="12" rx="4" ry="4" style="stroke: #0000FF; stroke-width: 1.0;" width="156" x="658" y="130"/><text fill="#000000" font-family="Serif" font-size="11" lengthAdjust="spacingAndGlyphs" textLength="39" x="672" y="138.8081">Design</text><rect fill="#ADFF2F" height="12" rx="4" ry="4" style="stroke: #0000FF; stroke-width: 1.0;" width="172" x="818" y="146"/><text fill="#000000" font-family="Serif" font-size="11" lengthAdjust="spacingAndGlyphs" textLength="98" x="832" y="154.8081">Code Refactoring</text><rect fill="#ADFF2F" height="12" rx="4" ry="4" style="stroke: #0000FF; stroke-width: 1.0;" width="172" x="818" y="162"/><text fill="#000000" font-family="Serif" font-size="11" lengthAdjust="spacingAndGlyphs" textLength="108" x="832" y="170.8081">Test Restructuring</text><rect fill="#ADFF2F" height="12" rx="4" ry="4" style="stroke: #0000FF; stroke-width: 1.0;" width="172" x="818" y="178"/><text fill="#000000" font-family="Serif" font-size="11" lengthAdjust="spacingAndGlyphs" textLength="92" x="832" y="186.8081">Test Alterations</text><rect fill="#ADFF2F" height="12" rx="4" ry="4" style="stroke: #0000FF; stroke-width: 1.0;" width="988" x="2" y="194"/><text fill="#000000" font-family="Serif" font-size="11" lengthAdjust="spacingAndGlyphs" textLength="75" x="16" y="202.8081">Management</text><line style="stroke: #CD0A0A; stroke-width: 1.5;" x1="152" x2="152" y1="32" y2="88"/><line style="stroke: #CD0A0A; stroke-width: 1.5;" x1="152" x2="160" y1="88" y2="88"/><polygon fill="#CD0A0A" points="156,84,156,88,156,92,160,88" style="stroke: #CD0A0A; stroke-width: 1.5;"/><line style="stroke: #CD0A0A; stroke-width: 1.5;" x1="152" x2="152" y1="32" y2="40"/><line style="stroke: #CD0A0A; stroke-width: 1.5;" x1="152" x2="160" y1="40" y2="40"/><polygon fill="#CD0A0A" points="156,36,156,40,156,44,160,40" style="stroke: #CD0A0A; stroke-width: 1.5;"/><line style="stroke: #CD0A0A; stroke-width: 1.5;" x1="160" x2="152" y1="40" y2="40"/><line style="stroke: #CD0A0A; stroke-width: 1.5;" x1="152" x2="152" y1="40" y2="56"/><line style="stroke: #CD0A0A; stroke-width: 1.5;" x1="152" x2="208" y1="56" y2="56"/><polygon fill="#CD0A0A" points="204,52,204,56,204,60,208,56" style="stroke: #CD0A0A; stroke-width: 1.5;"/><line style="stroke: #CD0A0A; stroke-width: 1.5;" x1="208" x2="200" y1="56" y2="56"/><line style="stroke: #CD0A0A; stroke-width: 1.5;" x1="200" x2="200" y1="56" y2="72"/><line style="stroke: #CD0A0A; stroke-width: 1.5;" x1="200" x2="208" y1="72" y2="72"/><polygon fill="#CD0A0A" points="204,68,204,72,204,76,208,72" style="stroke: #CD0A0A; stroke-width: 1.5;"/><line style="stroke: #CD0A0A; stroke-width: 1.5;" x1="648" x2="648" y1="96" y2="136"/><line style="stroke: #CD0A0A; stroke-width: 1.5;" x1="648" x2="656" y1="136" y2="136"/><polygon fill="#CD0A0A" points="652,132,652,136,652,140,656,136" style="stroke: #CD0A0A; stroke-width: 1.5;"/><line style="stroke: #CD0A0A; stroke-width: 1.5;" x1="648" x2="648" y1="96" y2="120"/><line style="stroke: #CD0A0A; stroke-width: 1.5;" x1="648" x2="656" y1="120" y2="120"/><polygon fill="#CD0A0A" points="652,116,652,120,652,124,656,120" style="stroke: #CD0A0A; stroke-width: 1.5;"/><line style="stroke: #CD0A0A; stroke-width: 1.5;" x1="648" x2="648" y1="96" y2="104"/><line style="stroke: #CD0A0A; stroke-width: 1.5;" x1="648" x2="656" y1="104" y2="104"/><polygon fill="#CD0A0A" points="652,100,652,104,652,108,656,104" style="stroke: #CD0A0A; stroke-width: 1.5;"/><line style="stroke: #CD0A0A; stroke-width: 1.5;" x1="808" x2="808" y1="144" y2="168"/><line style="stroke: #CD0A0A; stroke-width: 1.5;" x1="808" x2="816" y1="168" y2="168"/><polygon fill="#CD0A0A" points="812,164,812,168,812,172,816,168" style="stroke: #CD0A0A; stroke-width: 1.5;"/><line style="stroke: #CD0A0A; stroke-width: 1.5;" x1="808" x2="808" y1="144" y2="184"/><line style="stroke: #CD0A0A; stroke-width: 1.5;" x1="808" x2="816" y1="184" y2="184"/><polygon fill="#CD0A0A" points="812,180,812,184,812,188,816,184" style="stroke: #CD0A0A; stroke-width: 1.5;"/><line style="stroke: #CD0A0A; stroke-width: 1.5;" x1="808" x2="808" y1="144" y2="152"/><line style="stroke: #CD0A0A; stroke-width: 1.5;" x1="808" x2="816" y1="152" y2="152"/><polygon fill="#CD0A0A" points="812,148,812,152,812,156,816,152" style="stroke: #CD0A0A; stroke-width: 1.5;"/><!--
--></g></svg>